<?xml version="1.0" encoding="utf-8"?>
<!-- Generator: Adobe Illustrator 26.3.1, SVG Export Plug-In . SVG Version: 6.00 Build 0)  -->
<svg version="1.1" xmlns="http://www.w3.org/2000/svg" xmlns:xlink="http://www.w3.org/1999/xlink" x="0px" y="0px"
	 viewBox="0 0 2180.4 789" style="enable-background:new 0 0 2180.4 789;" xml:space="preserve">
<style type="text/css">
	.st0{fill:#89C9A7;}
	.st1{opacity:0.4;fill:url(#SVGID_1_);enable-background:new    ;}
	.st2{opacity:0.4;fill:url(#SVGID_00000016772877623529093750000000599596914766517892_);enable-background:new    ;}
	.st3{opacity:0.4;fill:url(#SVGID_00000101801598364001046920000012140307651605091750_);enable-background:new    ;}
	.st4{opacity:0.4;fill:url(#SVGID_00000140008887311218826950000004837727923501017238_);enable-background:new    ;}
	.st5{opacity:0.4;fill:url(#SVGID_00000093166183653628130980000011589191898691248550_);enable-background:new    ;}
	.st6{fill:#048943;}
	.st7{fill:#FFFFFF;}
	.st8{enable-background:new    ;}
	.st9{font-family:'CenturyGothic-Italic';}
	.st10{font-size:72px;}
	.st11{letter-spacing:15;}
	.st12{opacity:0.46;enable-background:new    ;}
	.st13{fill:#2C3530;}
</style>
<g id="Layer_1">
	<g transform="">
		<rect y="-5" class="st0" width="2180.4" height="794"/>
		
			<linearGradient id="SVGID_1_" gradientUnits="userSpaceOnUse" x1="-108.9134" y1="34.3048" x2="-107.9135" y2="34.3048" gradientTransform="matrix(1260.2737 0 0 993.4269 137407.5469 -33683.3203)">
			<stop  offset="0" style="stop-color:#FFFFFF"/>
			<stop  offset="1" style="stop-color:#FFFFFF"/>
		</linearGradient>
		<path class="st1" d="M1407,425.1c0,136.1-384.9,257.3-557,299.6s-526.8,84.5-633.3-25.3s-84.9-428.3,21.6-538
			C344.8,51.6,715.8-5.5,887.9,36.8S1407,289,1407,425.1		">
<animate  accumulate="none" additive="replace" attributeName="d" begin="-4s" calcMode="linear" calcmod="spline" dur="10s" fill="remove" keySplines="0.3 0.1 0.7 0.9;0.3 0.1 0.7 0.9;0.3 0.1 0.7 0.9" keyTimes="0;0.3333333333333333;0.6666666666666666;1" repeatCount="indefinite" restart="always" values="M 1399 381 C 1399 565 1046 788 871 845 C 696 902 321 898 213 749 C 105 600 181 216 289 67 C 397 -82 718 -208 893 -151 C 1068 -94 1399 197 1399 381;M 1343 381 C 1343 560 1014 707 844 762 C 674 817 340 878 235 733 C 130 588 123 168 228 23 C 333 -122 678 -69 848 -14 C 1018 41 1343 202 1343 381;M 1410 381 C 1410 561 1013 699 842 755 C 671 811 324 890 218 745 C 112 600 113 161 219 16 C 325 -129 715 -186 886 -130 C 1057 -74 1410 201 1410 381;M 1399 381 C 1399 565 1046 788 871 845 C 696 902 321 898 213 749 C 105 600 181 216 289 67 C 397 -82 718 -208 893 -151 C 1068 -94 1399 197 1399 381">
				</animate>
		</path>
		
			<linearGradient id="SVGID_00000112623380727185679730000003482113932693246371_" gradientUnits="userSpaceOnUse" x1="-108.8971" y1="34.3494" x2="-107.8971" y2="34.3494" gradientTransform="matrix(1059.6935 0 0 857.4993 115616.7656 -29017.998)">
			<stop  offset="0" style="stop-color:#FFFFFF"/>
			<stop  offset="1" style="stop-color:#FFFFFF"/>
		</linearGradient>
		<path style="opacity:0.4;fill:url(#SVGID_00000112623380727185679730000003482113932693246371_);enable-background:new    ;" d="
			M1278.9,425.1c0,120.7-267.6,283.5-420.2,320.6c-152.6,37.1-440.3-7.6-534.5-105.1s-150.8-365.4-56.6-462.9s417.4-62.5,570-25.6
			C990.1,188.9,1278.9,304.4,1278.9,425.1		">
<animate  accumulate="none" additive="replace" attributeName="d" begin="-4s" calcMode="linear" calcmod="spline" dur="10s" fill="remove" keySplines="0.3 0.1 0.7 0.9;0.3 0.1 0.7 0.9;0.3 0.1 0.7 0.9" keyTimes="0;0.3333333333333333;0.6666666666666666;1" repeatCount="indefinite" restart="always" values="M 1268 381 C 1268 551 1033 791 871 844 C 709 897 422 807 322 670 C 222 533 206 217 306 80 C 406 -57 698 -104 860 -52 C 1022 0 1268 211 1268 381;M 1329 381 C 1329 553 1010 720 847 773 C 684 826 403 823 302 684 C 201 545 105 146 206 7 C 307 -132 718 -168 881 -115 C 1044 -62 1329 209 1329 381;M 1283 381 C 1283 538 1003 746 854 794 C 705 842 417 794 325 667 C 233 540 161 168 253 41 C 345 -86 680 -4 829 44 C 978 92 1283 224 1283 381;M 1268 381 C 1268 551 1033 791 871 844 C 709 897 422 807 322 670 C 222 533 206 217 306 80 C 406 -57 698 -104 860 -52 C 1022 0 1268 211 1268 381">
				</animate>
		</path>
		
			<linearGradient id="SVGID_00000009573930020832432450000011988538608307585457_" gradientUnits="userSpaceOnUse" x1="-108.8947" y1="34.3398" x2="-107.8947" y2="34.3398" gradientTransform="matrix(1035.4666 0 0 899.8815 112976.2891 -30493.6113)">
			<stop  offset="0" style="stop-color:#FFFFFF"/>
			<stop  offset="1" style="stop-color:#FFFFFF"/>
		</linearGradient>
		<path style="opacity:0.4;fill:url(#SVGID_00000009573930020832432450000011988538608307585457_);enable-background:new    ;" d="
			M1254.9,425.1c0,124.1-249.7,258.5-406.6,296.9c-156.9,38.5-464.2,39.7-561.4-60.6c-97.1-100.3-85.9-366.6,11.2-467.1
			S710.7,44.7,867.6,83.2C1024.5,121.6,1254.9,301,1254.9,425.1		">
<animate  accumulate="none" additive="replace" attributeName="d" begin="-4s" calcMode="linear" calcmod="spline" dur="10s" fill="remove" keySplines="0.3 0.1 0.7 0.9;0.3 0.1 0.7 0.9;0.3 0.1 0.7 0.9" keyTimes="0;0.3333333333333333;0.6666666666666666;1" repeatCount="indefinite" restart="always" values="M 1339 381 C 1339 565 1032 746 857 803 C 682 860 313 903 205 755 C 97 607 106 162 214 13 C 322 -136 710 -184 885 -127 C 1060 -70 1339 197 1339 381;M 1342 381 C 1342 549 1028 784 868 836 C 708 888 402 820 303 684 C 204 548 192 205 291 69 C 390 -67 680 -42 840 10 C 1000 62 1342 213 1342 381;M 1223 381 C 1223 539 995 717 845 766 C 695 815 411 801 318 673 C 225 545 237 225 330 97 C 423 -31 711 -103 861 -54 C 1011 -5 1223 223 1223 381;M 1339 381 C 1339 565 1032 746 857 803 C 682 860 313 903 205 755 C 97 607 106 162 214 13 C 322 -136 710 -184 885 -127 C 1060 -70 1339 197 1339 381">
				</animate>
		</path>
		
			<linearGradient id="SVGID_00000007388396083384410580000009221045474265618353_" gradientUnits="userSpaceOnUse" x1="-108.9059" y1="34.3184" x2="-107.9058" y2="34.3184" gradientTransform="matrix(1157.7191 0 0 933.29 126284.7031 -31602.5664)">
			<stop  offset="0" style="stop-color:#FFFFFF"/>
			<stop  offset="1" style="stop-color:#FFFFFF"/>
		</linearGradient>
		<path style="opacity:0.4;fill:url(#SVGID_00000007388396083384410580000009221045474265618353_);enable-background:new    ;" d="
			M1360.1,425.1c0,125.9-334.1,300.3-493.6,338.9C707,802.7,403.3,753.2,304.9,651.1c-98.4-102-147.2-377.7-48.9-479.8
			c98.4-102,446.2-113.8,605.7-75.1S1360.1,299.2,1360.1,425.1		">
<animate  accumulate="none" additive="replace" attributeName="d" begin="-4s" calcMode="linear" calcmod="spline" dur="10s" fill="remove" keySplines="0.3 0.1 0.7 0.9;0.3 0.1 0.7 0.9;0.3 0.1 0.7 0.9" keyTimes="0;0.3333333333333333;0.6666666666666666;1" repeatCount="indefinite" restart="always" values="M 1318 381 C 1318 542 1018 777 865 827 C 712 877 425 793 331 663 C 237 533 236 227 330 97 C 424 -33 708 -103 861 -53 C 1014 -3 1318 220 1318 381;M 1223 381 C 1223 536 985 692 837 740 C 689 788 353 839 262 713 C 171 587 265 242 356 116 C 447 -10 714 -104 862 -56 C 1010 -8 1223 226 1223 381;M 1376 381 C 1376 551 1029 782 867 834 C 705 886 395 827 295 689 C 195 551 128 161 228 23 C 328 -115 700 -110 862 -58 C 1024 -6 1376 211 1376 381;M 1318 381 C 1318 542 1018 777 865 827 C 712 877 425 793 331 663 C 237 533 236 227 330 97 C 424 -33 708 -103 861 -53 C 1014 -3 1318 220 1318 381">
				</animate>
		</path>
		
			<linearGradient id="SVGID_00000117671446675557932460000001123252998292185268_" gradientUnits="userSpaceOnUse" x1="-108.9092" y1="34.3216" x2="-107.9092" y2="34.3216" gradientTransform="matrix(1199.96 0 0 934.923 130855.2969 -31672.1055)">
			<stop  offset="0" style="stop-color:#FFFFFF"/>
			<stop  offset="1" style="stop-color:#FFFFFF"/>
		</linearGradient>
		<path style="opacity:0.4;fill:url(#SVGID_00000117671446675557932460000001123252998292185268_);enable-background:new    ;" d="
			M1368.6,425.1c0,134.6-344.4,266.9-514.8,308.9c-170.4,41.9-506.3,61.2-612.2-47.9S149.3,280,255.2,170.9
			C361.1,61.7,696.3,43.8,866.7,85.1C1037.1,126.5,1368.6,290.5,1368.6,425.1		">
<animate  accumulate="none" additive="replace" attributeName="d" begin="-4s" calcMode="linear" calcmod="spline" dur="10s" fill="remove" keySplines="0.3 0.1 0.7 0.9;0.3 0.1 0.7 0.9;0.3 0.1 0.7 0.9" keyTimes="0;0.3333333333333333;0.6666666666666666;1" repeatCount="indefinite" restart="always" values="M 1270 381 C 1270 542 993 700 840 750 C 687 800 375 830 280 700 C 185 570 224 219 319 89 C 414 -41 676 -4 829 46 C 982 96 1270 220 1270 381;M 1287 381 C 1287 556 1018 729 851 783 C 684 837 407 825 304 683 C 201 541 162 192 265 50 C 368 -92 709 -155 876 -101 C 1043 -47 1287 206 1287 381;M 1406 381 C 1406 567 1036 750 859 808 C 682 866 337 890 227 739 C 117 588 121 176 231 25 C 341 -126 704 -173 881 -116 C 1058 -59 1406 195 1406 381;M 1270 381 C 1270 542 993 700 840 750 C 687 800 375 830 280 700 C 185 570 224 219 319 89 C 414 -41 676 -4 829 46 C 982 96 1270 220 1270 381">
				</animate>
		</path>
	</g>
	<g>
		<path class="st6" d="M845,325.5h16.3v68.3h82.9v-68.3h16.3v162.8h-16.3v-78.6h-82.9v78.6H845V325.5z"/>
		<path class="st6" d="M1098.8,448.4l13.1,6.9c-4.3,8.4-9.2,15.2-14.8,20.4c-5.6,5.2-11.9,9.1-18.9,11.8c-7,2.7-15,4-23.8,4
			c-19.6,0-35-6.4-46.1-19.3s-16.6-27.4-16.6-43.7c0-15.3,4.7-28.9,14.1-40.8c11.9-15.2,27.8-22.8,47.7-22.8
			c20.5,0,36.9,7.8,49.2,23.3c8.7,11,13.1,24.7,13.3,41.2h-108.3c0.3,14,4.8,25.4,13.4,34.4c8.6,8.9,19.3,13.4,32,13.4
			c6.1,0,12.1-1.1,17.9-3.2s10.7-5,14.8-8.5C1089.7,461.9,1094.1,456.2,1098.8,448.4z M1098.8,415.9c-2.1-8.3-5.1-14.9-9-19.8
			c-4-4.9-9.2-8.9-15.7-12c-6.5-3-13.3-4.5-20.5-4.5c-11.8,0-22,3.8-30.5,11.4c-6.2,5.5-10.9,13.8-14.1,24.9H1098.8z"/>
		<path class="st6" d="M1142.4,321.4h15.5v166.9h-15.5V321.4z"/>
		<path class="st6" d="M1187.8,321.4h15.5v166.9h-15.5V321.4z"/>
		<path class="st6" d="M1292.5,364.8c18.5,0,33.9,6.7,46.1,20.1c11.1,12.2,16.6,26.7,16.6,43.5s-5.9,31.5-17.6,44.1
			s-26.8,18.9-45.2,18.9c-18.5,0-33.6-6.3-45.3-18.9c-11.7-12.6-17.6-27.3-17.6-44.1c0-16.7,5.5-31.1,16.6-43.4
			C1258.5,371.6,1273.9,364.8,1292.5,364.8z M1292.4,380c-12.9,0-24,4.8-33.2,14.3s-13.9,21-13.9,34.5c0,8.7,2.1,16.8,6.3,24.3
			c4.2,7.5,9.9,13.3,17.1,17.4s15.1,6.1,23.7,6.1s16.5-2,23.7-6.1s12.9-9.9,17.1-17.4s6.3-15.6,6.3-24.3c0-13.5-4.6-25-13.9-34.5
			S1305.2,380,1292.4,380z"/>
		<path class="st7" d="M1433,341.5v-15.9h89.2v15.9h-36.3v146.8h-16.6V341.5H1433z"/>
		<path class="st7" d="M1543.1,321.4h15.5v68.1c6.3-8.3,13.2-14.4,20.7-18.5s15.7-6.1,24.5-6.1c9,0,17,2.3,24,6.9
			s12.1,10.7,15.4,18.4c3.3,7.7,5,19.8,5,36.2v62h-15.5V431c0-13.9-0.6-23.1-1.7-27.8c-1.9-8-5.4-14-10.5-18s-11.7-6-19.9-6
			c-9.4,0-17.8,3.1-25.2,9.3c-7.4,6.2-12.3,13.9-14.7,23c-1.5,5.9-2.2,16.8-2.2,32.8v44.2H1543L1543.1,321.4L1543.1,321.4z"/>
		<path class="st7" d="M1782.7,448.4l13.1,6.9c-4.3,8.4-9.2,15.2-14.8,20.4c-5.6,5.2-11.9,9.1-18.9,11.8c-7,2.7-15,4-23.8,4
			c-19.6,0-35-6.4-46.1-19.3s-16.6-27.4-16.6-43.7c0-15.3,4.7-28.9,14.1-40.8c11.9-15.2,27.8-22.8,47.7-22.8
			c20.5,0,36.9,7.8,49.2,23.3c8.7,11,13.1,24.7,13.3,41.2h-108.3c0.3,14,4.8,25.4,13.4,34.4c8.6,8.9,19.3,13.4,32,13.4
			c6.1,0,12.1-1.1,17.9-3.2s10.7-5,14.8-8.5C1773.6,461.9,1778,456.2,1782.7,448.4z M1782.7,415.9c-2.1-8.3-5.1-14.9-9-19.8
			c-4-4.9-9.2-8.9-15.7-12c-6.5-3-13.3-4.5-20.5-4.5c-11.8,0-22,3.8-30.5,11.4c-6.2,5.5-10.9,13.8-14.1,24.9H1782.7z"/>
		<path class="st7" d="M1822.8,367.9h15.8v17.6c4.7-6.9,9.7-12.1,14.9-15.5c5.2-3.4,10.7-5.1,16.4-5.1c4.3,0,8.9,1.4,13.7,4.1
			l-8.1,13.1c-3.2-1.4-6-2.1-8.2-2.1c-5.2,0-10.1,2.1-14.9,6.4c-4.8,4.2-8.4,10.8-11,19.8c-1.9,6.9-2.9,20.7-2.9,41.6v40.7h-15.8
			L1822.8,367.9L1822.8,367.9z"/>
		<path class="st7" d="M1998.2,448.4l13.1,6.9c-4.3,8.4-9.2,15.2-14.8,20.4c-5.6,5.2-11.9,9.1-18.9,11.8c-7,2.7-15,4-23.8,4
			c-19.6,0-35-6.4-46.1-19.3s-16.6-27.4-16.6-43.7c0-15.3,4.7-28.9,14.1-40.8c11.9-15.2,27.8-22.8,47.7-22.8
			c20.5,0,36.9,7.8,49.2,23.3c8.7,11,13.1,24.7,13.3,41.2h-108.3c0.3,14,4.8,25.4,13.4,34.4c8.6,8.9,19.3,13.4,32,13.4
			c6.1,0,12.1-1.1,17.9-3.2s10.7-5,14.8-8.5C1989,461.9,1993.4,456.2,1998.2,448.4z M1998.2,415.9c-2.1-8.3-5.1-14.9-9-19.8
			c-4-4.9-9.2-8.9-15.7-12c-6.5-3-13.3-4.5-20.5-4.5c-11.8,0-22,3.8-30.5,11.4c-6.2,5.5-10.9,13.8-14.1,24.9H1998.2z"/>
		<path class="st7" d="M2060.2,464c3.8,0,7,1.3,9.6,4c2.7,2.7,4,5.9,4,9.7c0,3.8-1.3,7-4,9.7s-5.9,4-9.6,4c-3.8,0-7-1.3-9.6-4
			c-2.7-2.7-4-5.9-4-9.7c0-3.8,1.3-7.1,4-9.7C2053.3,465.3,2056.5,464,2060.2,464z M2068.1,321.4v126.2h-16V321.4H2068.1z"/>
	</g>
	<g class="st8">
		<path class="st7" d="M1460.3,538.2l17.3,51.7h-5.3l-5.7-16.9h-21.9l-9.7,16.9h-5.8l29.8-51.7H1460.3z M1458.6,549l-11,19.1h17.4
			L1458.6,549z"/>
		<path class="st7" d="M1491.2,536.9h4.8l-7.1,53h-4.8L1491.2,536.9z"/>
		<path class="st7" d="M1505.3,551.7h5l-0.8,5.7c4.4-4.5,9.5-6.7,15.1-6.7c5.2,0,9.5,1.7,12.8,5s5,7.7,5,12.9
			c0,6.1-2.2,11.3-6.5,15.7c-4.3,4.4-9.4,6.6-15.3,6.6c-3.2,0-6-0.7-8.4-2c-2.4-1.3-4.5-3.4-6.1-6.3l-2.8,21.3h-5.1L1505.3,551.7z
			 M1524.1,555.2c-3.1,0-6,0.7-8.6,2.2c-2.6,1.5-4.7,3.6-6.2,6.4c-1.5,2.8-2.3,5.8-2.3,9.1c0,4,1.3,7.2,3.8,9.7s5.8,3.7,9.7,3.7
			c4.7,0,8.7-1.7,12.1-5.1c3.3-3.4,5-7.6,5-12.5c0-4.1-1.2-7.3-3.7-9.8C1531.4,556.4,1528.1,555.2,1524.1,555.2z"/>
		<path class="st7" d="M1588.1,571.8H1554c-0.1,4.5,1.1,8.1,3.6,10.7s5.7,3.9,9.7,3.9c2.7,0,5.2-0.6,7.5-1.7s4.2-2.6,5.7-4.6l3.7,3
			c-1.9,2.4-4.3,4.3-7.3,5.7s-6.2,2.1-9.7,2.1c-6,0-10.5-1.9-13.5-5.6s-4.5-7.9-4.5-12.5c0-3.8,1-7.5,3-11s4.7-6.3,8.1-8.2
			s7.1-2.9,11-2.9c4.9,0,9,1.7,12.2,5s4.8,7.5,4.8,12.7C1588.3,569.3,1588.3,570.4,1588.1,571.8z M1583.6,567.5
			c-0.1-3.6-1.4-6.5-3.7-8.7c-2.3-2.2-5.2-3.3-8.8-3.3c-3.8,0-7.2,1.1-10.1,3.2c-2.9,2.2-5,5.1-6.2,8.9H1583.6z"/>
		<path class="st7" d="M1598.5,551.7h4.9l-0.7,4.8c1.3-1.8,2.9-3.2,4.8-4.3c1.9-1,3.8-1.5,5.7-1.5c1.4,0,2.8,0.3,4.3,1l-2.3,4.5
			c-1.2-0.5-2.2-0.7-3.1-0.7c-1.7,0-3.4,0.6-5.1,1.8c-1.7,1.2-3,2.9-4.1,5.2c-1,2.3-1.9,6-2.6,11.3l-2.2,16.2h-4.8L1598.5,551.7z"/>
		<path class="st7" d="M1656.5,571.8h-34.1c-0.1,4.5,1.1,8.1,3.6,10.7s5.7,3.9,9.7,3.9c2.7,0,5.2-0.6,7.5-1.7s4.2-2.6,5.7-4.6l3.7,3
			c-1.9,2.4-4.3,4.3-7.3,5.7s-6.2,2.1-9.7,2.1c-6,0-10.5-1.9-13.5-5.6s-4.5-7.9-4.5-12.5c0-3.8,1-7.5,3-11s4.7-6.3,8.1-8.2
			s7.1-2.9,11-2.9c4.9,0,9,1.7,12.2,5s4.8,7.5,4.8,12.7C1656.8,569.3,1656.7,570.4,1656.5,571.8z M1652,567.5
			c-0.1-3.6-1.4-6.5-3.7-8.7c-2.3-2.2-5.2-3.3-8.8-3.3c-3.8,0-7.2,1.1-10.1,3.2c-2.9,2.2-5,5.1-6.2,8.9H1652z"/>
		<path class="st7" d="M1669,551.7h4.7l-0.8,6c3.9-4.6,8.4-6.9,13.6-6.9c4,0,7.2,1.2,9.6,3.6c2.4,2.4,3.6,5.7,3.6,9.8
			c0,1.6-0.3,4.4-0.8,8.3l-2.4,17.5h-4.8l2.4-17.5c0.5-3.8,0.8-6.5,0.8-8.3c0-2.7-0.8-4.8-2.4-6.5c-1.6-1.6-3.8-2.5-6.4-2.5
			c-2.6,0-5,0.7-7.2,2c-2.2,1.3-3.9,3.1-5.2,5.4s-2.2,5.9-2.8,10.8l-2.2,16.5h-4.8L1669,551.7z"/>
		<path class="st7" d="M1734.9,538.2h5.1l-2.8,21l24.1-21h7.4l-28,24.2l24.2,27.5h-6.6l-21.9-24.9l-3.5,24.9h-5.1L1734.9,538.2z"/>
		<path class="st7" d="M1802.3,536.9c7,0,12.8,2.3,17.4,6.9s6.9,10.3,6.9,17.3c0,8.5-2.9,15.7-8.8,21.4s-13.2,8.7-22,8.7
			c-7.5,0-13.4-2.2-17.9-6.7s-6.7-10.3-6.7-17.5c0-5.6,1.3-10.7,4-15.3s6.4-8.3,11.1-10.9S1796.5,536.9,1802.3,536.9z M1802.2,541.7
			c-4.9,0-9.4,1.1-13.2,3.2c-3.9,2.2-6.9,5.2-9.2,9.2c-2.3,4-3.4,8.2-3.4,12.7c0,3.8,0.8,7.2,2.5,10.2c1.6,3,3.9,5.3,6.8,6.9
			c2.9,1.6,6.3,2.4,10.2,2.4c4.6,0,8.9-1.1,12.9-3.4s7.1-5.3,9.3-9.3s3.4-8.3,3.4-12.9c0-6.1-2.1-11-6.4-14.6
			C1811.5,543.2,1807.2,541.7,1802.2,541.7z"/>
		<path class="st7" d="M1840.1,538.2h5.2L1839,585h22.3l-0.6,4.9h-27.6L1840.1,538.2z"/>
		<path class="st7" d="M1894.5,538.2l17.3,51.7h-5.3l-5.7-16.9H1879l-9.7,16.9h-5.8l29.8-51.7H1894.5z M1892.9,549l-11,19.1h17.4
			L1892.9,549z"/>
		<path class="st7" d="M1975.6,538.2v51.7h-4.9v-35.6l-22.5,35.6h-1.3l-13.4-36.9l-10.6,36.9h-5.2l14.9-51.7h0.9l15.1,42l26.2-42
			H1975.6z"/>
		<path class="st7" d="M1992.4,538.2h5.1l-4.1,29.6c-0.5,3.9-0.8,6.7-0.8,8.4c0,3.2,0.9,5.7,2.7,7.5s4.4,2.6,7.7,2.6
			c2.3,0,4.4-0.4,6.2-1.2c1.8-0.8,3.3-2,4.6-3.5c1.3-1.5,2.2-3.3,2.7-5.3c0.9-3.5,1.7-7.8,2.4-13.1l3.3-25.1h5.1l-3.5,26.1l-0.8,6.4
			c-0.5,3-1.1,5.5-1.8,7.6s-1.6,4-2.7,5.6s-2.3,2.9-3.7,4s-3.1,1.8-5.1,2.4c-2,0.6-4.2,0.9-6.6,0.9c-5,0-8.9-1.3-11.6-3.9
			c-2.7-2.6-4.1-6-4.1-10.3c0-1.2,0.1-2.5,0.2-4l0.8-6L1992.4,538.2z"/>
		<path class="st7" d="M2086.5,545.3l-3.1,4.3c-5.5-5.2-11.7-7.7-18.7-7.7c-4.6,0-8.8,1.1-12.8,3.3s-7.1,5.2-9.3,9
			c-2.2,3.8-3.4,7.8-3.4,12.2c0,3.9,0.9,7.3,2.6,10.3c1.7,3,4.2,5.4,7.5,7.1c3.3,1.7,7,2.6,11.2,2.6c6.4,0,12.4-2,17.9-6.1l2.9,4.1
			c-4.1,2.7-7.6,4.5-10.6,5.4c-3,0.9-6.4,1.4-10.2,1.4c-7.1,0-13-1.8-17.5-5.4c-6-4.8-9-11.2-9-19.2c0-8.3,3-15.3,9-21.1
			s13.4-8.6,22.3-8.6c4.1,0,7.7,0.6,11.1,1.9S2083,542.3,2086.5,545.3z"/>
	</g>
	<text transform="matrix(1 0 0 1 1430.3088 645.9087)" class="st7 st9 st10 st11"> </text>
	<g class="st8">
		<path class="st7" d="M1505.6,645.9h-5l0.8-5.8c-4.4,4.5-9.5,6.7-15.2,6.7c-5.2,0-9.4-1.7-12.8-5s-5-7.7-5-12.9
			c0-6.1,2.2-11.3,6.5-15.7c4.4-4.4,9.5-6.6,15.4-6.6c3.2,0,6,0.7,8.4,2c2.4,1.3,4.4,3.4,6.1,6.2l0.9-7.3h5.1L1505.6,645.9z
			 M1486.8,642.4c3.2,0,6-0.7,8.6-2.2c2.6-1.5,4.6-3.6,6.2-6.4s2.3-5.8,2.3-9.1c0-4-1.2-7.2-3.7-9.7c-2.5-2.5-5.7-3.7-9.7-3.7
			c-4.7,0-8.7,1.7-12,5.1c-3.3,3.4-5,7.6-5,12.5c0,4.1,1.2,7.3,3.7,9.8C1479.5,641.2,1482.8,642.4,1486.8,642.4z"/>
		<path class="st7" d="M1521.9,638.3c1.2,0,2.2,0.4,3,1.3s1.2,1.9,1.2,3s-0.4,2.2-1.2,3s-1.8,1.3-3,1.3s-2.2-0.4-3-1.3
			s-1.2-1.9-1.2-3s0.4-2.2,1.2-3S1520.7,638.3,1521.9,638.3z"/>
		<path class="st7" d="M1544,592.9h4.8l-3.8,29l18.5-14.3h7.7l-22.2,17.1l19.6,21.2h-6.6l-17.7-19.1l-2.5,19.1h-4.9L1544,592.9z"/>
		<path class="st7" d="M1578,638.3c1.2,0,2.2,0.4,3,1.3s1.2,1.9,1.2,3s-0.4,2.2-1.2,3s-1.8,1.3-3,1.3s-2.2-0.4-3-1.3s-1.2-1.9-1.2-3
			s0.4-2.2,1.2-3S1576.8,638.3,1578,638.3z"/>
		<path class="st7" d="M1630.8,645.9h-5l0.8-5.8c-4.4,4.5-9.5,6.7-15.2,6.7c-5.2,0-9.4-1.7-12.8-5s-5-7.7-5-12.9
			c0-6.1,2.2-11.3,6.5-15.7c4.4-4.4,9.5-6.6,15.4-6.6c3.2,0,6,0.7,8.4,2c2.4,1.3,4.4,3.4,6.1,6.2l0.9-7.3h5.1L1630.8,645.9z
			 M1611.9,642.4c3.2,0,6-0.7,8.6-2.2c2.6-1.5,4.6-3.6,6.2-6.4s2.3-5.8,2.3-9.1c0-4-1.2-7.2-3.7-9.7c-2.5-2.5-5.7-3.7-9.7-3.7
			c-4.7,0-8.7,1.7-12,5.1c-3.3,3.4-5,7.6-5,12.5c0,4.1,1.2,7.3,3.7,9.8C1604.7,641.2,1608,642.4,1611.9,642.4z"/>
		<path class="st7" d="M1697.7,594.2l-0.7,5h-23.2l-2.3,16.9h23.2l-0.7,5h-23.2l-2.7,19.8h23.2l-0.6,5h-28.5l7-51.7H1697.7z"/>
		<path class="st7" d="M1706.9,592.9h4.8l-7.1,53h-4.8L1706.9,592.9z"/>
		<path class="st7" d="M1754.6,627.8h-34.1c-0.1,4.5,1.1,8.1,3.6,10.7s5.7,3.9,9.7,3.9c2.7,0,5.2-0.6,7.5-1.7s4.2-2.6,5.7-4.6l3.7,3
			c-1.9,2.4-4.3,4.3-7.3,5.7s-6.2,2.1-9.7,2.1c-6,0-10.5-1.9-13.5-5.6s-4.5-7.9-4.5-12.5c0-3.8,1-7.5,3-11s4.7-6.3,8.1-8.2
			s7.1-2.9,11-2.9c4.9,0,9,1.7,12.2,5s4.8,7.5,4.8,12.7C1754.9,625.3,1754.8,626.4,1754.6,627.8z M1750.1,623.5
			c-0.1-3.6-1.4-6.5-3.7-8.7c-2.3-2.2-5.2-3.3-8.8-3.3c-3.8,0-7.2,1.1-10.1,3.2c-2.9,2.2-5,5.1-6.2,8.9H1750.1z"/>
		<path class="st7" d="M1802.5,615.9l-4,2.4c-2.8-4.6-7.2-6.9-13-6.9c-3.4,0-6.4,0.8-9.2,2.2s-5,3.6-6.5,6.3s-2.4,5.5-2.4,8.6
			c0,2.7,0.6,5.1,1.8,7.2c1.2,2.1,2.8,3.8,4.9,4.9c2.1,1.1,4.6,1.7,7.5,1.7c2.9,0,5.8-0.6,8.4-1.8s4.8-2.7,6.3-4.5l4,2.8
			c-2.5,2.8-5.3,4.8-8.2,6.1s-6.4,1.9-10.3,1.9c-6,0-10.8-1.6-14.2-4.9s-5.1-7.7-5.1-13.2c0-6.1,2.2-11.3,6.7-15.6s9.9-6.5,16.3-6.5
			c3.9,0,7.3,0.8,10.2,2.4S1801,613,1802.5,615.9z"/>
		<path class="st7" d="M1819.7,593.3h4.8l-1.9,14.3h7.7l-0.6,4.3h-7.7l-4.5,34h-4.9l4.6-34h-6.6l0.6-4.3h6.5L1819.7,593.3z"/>
		<path class="st7" d="M1836.1,607.7h4.9l-0.7,4.8c1.3-1.8,2.9-3.2,4.8-4.3c1.9-1,3.8-1.5,5.7-1.5c1.4,0,2.8,0.3,4.3,1l-2.3,4.5
			c-1.2-0.5-2.2-0.7-3.1-0.7c-1.7,0-3.4,0.6-5.1,1.8c-1.7,1.2-3,2.9-4.1,5.2c-1,2.3-1.9,6-2.6,11.3l-2.2,16.2h-4.8L1836.1,607.7z"/>
		<path class="st7" d="M1877,606.7c3.3,0,6.2,0.8,9,2.3s4.8,3.7,6.4,6.5s2.3,5.9,2.3,9.4c0,4-1,7.7-2.9,11.2s-4.6,6.1-7.8,8
			s-7,2.8-11.1,2.8c-5.1,0-9.4-1.7-12.7-5s-5-7.6-5-12.8c0-4.1,1-7.8,2.9-11.3s4.6-6.1,8-8.1S1873,606.7,1877,606.7z M1876.8,611.3
			c-3,0-5.9,0.8-8.6,2.3c-2.7,1.5-4.8,3.6-6.2,6.3c-1.4,2.7-2.2,5.6-2.2,8.8c0,4,1.2,7.3,3.7,9.8s5.7,3.8,9.6,3.8
			c3.1,0,5.9-0.7,8.4-2.2s4.5-3.6,6-6.3c1.5-2.8,2.2-5.7,2.2-8.9c0-2.6-0.6-5-1.7-7c-1.1-2.1-2.7-3.6-4.7-4.8
			C1881.4,611.9,1879.2,611.3,1876.8,611.3z"/>
		<path class="st7" d="M1906.8,607.7h4.7l-0.8,6c3.9-4.6,8.4-6.9,13.6-6.9c4,0,7.2,1.2,9.6,3.6c2.4,2.4,3.6,5.7,3.6,9.8
			c0,1.6-0.3,4.4-0.8,8.3l-2.4,17.5h-4.8l2.4-17.5c0.5-3.8,0.8-6.5,0.8-8.3c0-2.7-0.8-4.8-2.4-6.5c-1.6-1.6-3.8-2.5-6.4-2.5
			c-2.6,0-5,0.7-7.2,2c-2.2,1.3-3.9,3.1-5.2,5.4s-2.2,5.9-2.8,10.8l-2.2,16.5h-4.8L1906.8,607.7z"/>
	</g>
	<g class="st8">
		<path class="st7" d="M1432.6,677.2h10.7v1.8h-8.8v5.9h8.8v1.8h-8.8v7.3h8.8v1.8h-10.6V677.2z"/>
		<path class="st7" d="M1446.2,682.1h1.8v2.4c0.6-0.9,1.3-1.5,1.9-1.9c0.9-0.5,1.8-0.8,2.8-0.8c0.7,0,1.3,0.1,1.9,0.4
			c0.6,0.3,1.1,0.6,1.5,1c0.4,0.4,0.7,1.1,1,1.9c0.6-1.1,1.3-1.9,2.2-2.5c0.9-0.6,1.8-0.8,2.9-0.8c1,0,1.8,0.2,2.5,0.7
			s1.3,1.2,1.6,2c0.4,0.9,0.5,2.2,0.5,3.9v7.5h-1.8v-7.5c0-1.5-0.1-2.5-0.3-3.1s-0.6-1-1.1-1.3c-0.5-0.3-1.1-0.5-1.8-0.5
			c-0.9,0-1.6,0.3-2.4,0.8s-1.2,1.2-1.6,2c-0.3,0.8-0.5,2.3-0.5,4.2v5.4h-1.8v-7.1c0-1.7-0.1-2.8-0.3-3.4c-0.2-0.6-0.6-1.1-1.1-1.4
			c-0.5-0.4-1.1-0.5-1.8-0.5c-0.8,0-1.6,0.2-2.3,0.7c-0.7,0.5-1.2,1.2-1.6,2s-0.5,2.1-0.5,3.8v5.9h-1.8V682.1z"/>
		<path class="st7" d="M1470.7,695.9v-19.1h1.8v7.7c0.7-0.9,1.6-1.6,2.5-2.1c0.9-0.5,1.9-0.7,3-0.7c2,0,3.6,0.7,5,2.1
			c1.4,1.4,2.1,3.1,2.1,5.2c0,2-0.7,3.7-2.1,5.1c-1.4,1.4-3.1,2.1-5,2.1c-1.1,0-2.1-0.2-3.1-0.7s-1.7-1.2-2.4-2.2v2.5H1470.7z
			 M1477.8,694.6c1,0,1.9-0.2,2.7-0.7s1.5-1.2,2-2.1c0.5-0.9,0.7-1.8,0.7-2.8c0-1-0.2-1.9-0.7-2.8s-1.2-1.6-2-2.1
			c-0.8-0.5-1.7-0.7-2.7-0.7c-1,0-1.9,0.2-2.8,0.7c-0.9,0.5-1.5,1.2-2,2s-0.7,1.8-0.7,2.8c0,1.6,0.5,2.9,1.6,4
			C1475,694,1476.3,694.6,1477.8,694.6z"/>
		<path class="st7" d="M1500,691.3l1.5,0.8c-0.5,1-1.1,1.7-1.7,2.3c-0.6,0.6-1.4,1-2.2,1.4c-0.8,0.3-1.7,0.5-2.7,0.5
			c-2.3,0-4-0.7-5.3-2.2s-1.9-3.1-1.9-5c0-1.8,0.5-3.3,1.6-4.7c1.4-1.7,3.2-2.6,5.5-2.6c2.4,0,4.2,0.9,5.6,2.7
			c1,1.3,1.5,2.8,1.5,4.7h-12.4c0,1.6,0.5,2.9,1.5,3.9s2.2,1.5,3.7,1.5c0.7,0,1.4-0.1,2.1-0.4c0.7-0.2,1.2-0.6,1.7-1
			C1498.9,692.9,1499.4,692.2,1500,691.3z M1500,687.6c-0.2-0.9-0.6-1.7-1-2.3c-0.5-0.6-1.1-1-1.8-1.4c-0.7-0.3-1.5-0.5-2.4-0.5
			c-1.4,0-2.5,0.4-3.5,1.3c-0.7,0.6-1.2,1.6-1.6,2.9H1500z"/>
		<path class="st7" d="M1519,676.8v19.1h-1.8v-2.4c-0.7,0.9-1.6,1.6-2.5,2s-1.9,0.7-3,0.7c-2,0-3.6-0.7-5-2.1
			c-1.4-1.4-2.1-3.1-2.1-5.2c0-2,0.7-3.7,2.1-5.1c1.4-1.4,3.1-2.1,5-2.1c1.1,0,2.2,0.2,3.1,0.7c0.9,0.5,1.7,1.2,2.4,2.2v-7.9H1519z
			 M1511.9,683.5c-1,0-1.9,0.2-2.7,0.7s-1.5,1.2-2,2c-0.5,0.9-0.7,1.8-0.7,2.8c0,1,0.2,1.9,0.7,2.8c0.5,0.9,1.2,1.6,2,2.1
			c0.8,0.5,1.7,0.7,2.7,0.7c1,0,1.9-0.2,2.8-0.7c0.9-0.5,1.5-1.2,2-2c0.5-0.8,0.7-1.8,0.7-2.8c0-1.6-0.5-2.9-1.6-4
			C1514.8,684,1513.5,683.5,1511.9,683.5z"/>
		<path class="st7" d="M1536.8,676.8v19.1h-1.8v-2.4c-0.7,0.9-1.6,1.6-2.5,2s-1.9,0.7-3,0.7c-2,0-3.6-0.7-5-2.1
			c-1.4-1.4-2.1-3.1-2.1-5.2c0-2,0.7-3.7,2.1-5.1c1.4-1.4,3.1-2.1,5-2.1c1.1,0,2.2,0.2,3.1,0.7c0.9,0.5,1.7,1.2,2.4,2.2v-7.9H1536.8
			z M1529.7,683.5c-1,0-1.9,0.2-2.7,0.7s-1.5,1.2-2,2c-0.5,0.9-0.7,1.8-0.7,2.8c0,1,0.2,1.9,0.7,2.8c0.5,0.9,1.2,1.6,2,2.1
			c0.8,0.5,1.7,0.7,2.7,0.7c1,0,1.9-0.2,2.8-0.7c0.9-0.5,1.5-1.2,2-2c0.5-0.8,0.7-1.8,0.7-2.8c0-1.6-0.5-2.9-1.6-4
			C1532.6,684,1531.3,683.5,1529.7,683.5z"/>
		<path class="st7" d="M1552.5,691.3l1.5,0.8c-0.5,1-1.1,1.7-1.7,2.3c-0.6,0.6-1.4,1-2.2,1.4c-0.8,0.3-1.7,0.5-2.7,0.5
			c-2.3,0-4-0.7-5.3-2.2s-1.9-3.1-1.9-5c0-1.8,0.5-3.3,1.6-4.7c1.4-1.7,3.2-2.6,5.5-2.6c2.4,0,4.2,0.9,5.6,2.7
			c1,1.3,1.5,2.8,1.5,4.7H1542c0,1.6,0.5,2.9,1.5,3.9s2.2,1.5,3.7,1.5c0.7,0,1.4-0.1,2.1-0.4c0.7-0.2,1.2-0.6,1.7-1
			C1551.5,692.9,1552,692.2,1552.5,691.3z M1552.5,687.6c-0.2-0.9-0.6-1.7-1-2.3c-0.5-0.6-1.1-1-1.8-1.4c-0.7-0.3-1.5-0.5-2.4-0.5
			c-1.4,0-2.5,0.4-3.5,1.3c-0.7,0.6-1.2,1.6-1.6,2.9H1552.5z"/>
		<path class="st7" d="M1571.6,676.8v19.1h-1.8v-2.4c-0.7,0.9-1.6,1.6-2.5,2s-1.9,0.7-3,0.7c-2,0-3.6-0.7-5-2.1
			c-1.4-1.4-2.1-3.1-2.1-5.2c0-2,0.7-3.7,2.1-5.1c1.4-1.4,3.1-2.1,5-2.1c1.1,0,2.2,0.2,3.1,0.7c0.9,0.5,1.7,1.2,2.4,2.2v-7.9H1571.6
			z M1564.5,683.5c-1,0-1.9,0.2-2.7,0.7s-1.5,1.2-2,2c-0.5,0.9-0.7,1.8-0.7,2.8c0,1,0.2,1.9,0.7,2.8c0.5,0.9,1.2,1.6,2,2.1
			c0.8,0.5,1.7,0.7,2.7,0.7c1,0,1.9-0.2,2.8-0.7c0.9-0.5,1.5-1.2,2-2c0.5-0.8,0.7-1.8,0.7-2.8c0-1.6-0.5-2.9-1.6-4
			C1567.3,684,1566,683.5,1564.5,683.5z"/>
		<path class="st7" d="M1581.1,692.4l1.6-1c1.1,2.1,2.4,3.1,3.9,3.1c0.6,0,1.2-0.1,1.8-0.4c0.6-0.3,1-0.7,1.3-1.2
			c0.3-0.5,0.4-1,0.4-1.6c0-0.6-0.2-1.2-0.6-1.8c-0.6-0.8-1.7-1.8-3.2-3c-1.6-1.2-2.5-2-2.9-2.6c-0.7-0.9-1-1.8-1-2.9
			c0-0.8,0.2-1.6,0.6-2.2c0.4-0.7,0.9-1.2,1.6-1.6c0.7-0.4,1.5-0.6,2.3-0.6c0.9,0,1.7,0.2,2.5,0.7c0.8,0.4,1.6,1.2,2.4,2.4l-1.5,1.2
			c-0.7-0.9-1.3-1.5-1.8-1.8c-0.5-0.3-1-0.4-1.6-0.4c-0.8,0-1.4,0.2-1.8,0.7c-0.5,0.5-0.7,1-0.7,1.7c0,0.4,0.1,0.8,0.3,1.2
			c0.2,0.4,0.5,0.8,0.9,1.2c0.2,0.2,1,0.9,2.4,1.9c1.6,1.2,2.7,2.3,3.3,3.2c0.6,0.9,0.9,1.9,0.9,2.8c0,1.4-0.5,2.5-1.5,3.5
			c-1,1-2.3,1.5-3.8,1.5c-1.1,0-2.2-0.3-3.1-0.9C1582.8,694.9,1581.9,693.9,1581.1,692.4z"/>
		<path class="st7" d="M1594.2,682.1h1.9l4.7,10.6l4.6-10.6h1.9l-8.2,18.9h-1.9l2.7-6.1L1594.2,682.1z"/>
		<path class="st7" d="M1616.6,683.6l-1.1,1.2c-1-0.9-1.9-1.4-2.8-1.4c-0.6,0-1.1,0.2-1.5,0.6c-0.4,0.4-0.6,0.8-0.6,1.3
			c0,0.4,0.2,0.9,0.5,1.3c0.3,0.4,1.1,0.9,2.1,1.5c1.3,0.7,2.2,1.3,2.7,2c0.5,0.6,0.7,1.4,0.7,2.2c0,1.1-0.4,2.1-1.2,2.9
			s-1.8,1.2-3,1.2c-0.8,0-1.6-0.2-2.3-0.5c-0.7-0.3-1.3-0.8-1.8-1.4l1.1-1.3c0.9,1,1.9,1.5,2.9,1.5c0.7,0,1.3-0.2,1.8-0.7
			c0.5-0.5,0.8-1,0.8-1.6c0-0.5-0.2-1-0.5-1.4c-0.3-0.4-1.1-0.9-2.2-1.5c-1.2-0.6-2.1-1.3-2.5-1.9c-0.5-0.6-0.7-1.3-0.7-2.1
			c0-1,0.4-1.9,1.1-2.6c0.7-0.7,1.6-1,2.7-1C1614,681.7,1615.3,682.4,1616.6,683.6z"/>
		<path class="st7" d="M1621.3,677h1.8v5.1h2.8v1.5h-2.8v12.3h-1.8v-12.3h-2.4v-1.5h2.4V677z"/>
		<path class="st7" d="M1640.2,691.3l1.5,0.8c-0.5,1-1.1,1.7-1.7,2.3c-0.6,0.6-1.4,1-2.2,1.4c-0.8,0.3-1.7,0.5-2.7,0.5
			c-2.3,0-4-0.7-5.3-2.2s-1.9-3.1-1.9-5c0-1.8,0.5-3.3,1.6-4.7c1.4-1.7,3.2-2.6,5.5-2.6c2.4,0,4.2,0.9,5.6,2.7
			c1,1.3,1.5,2.8,1.5,4.7h-12.4c0,1.6,0.5,2.9,1.5,3.9s2.2,1.5,3.7,1.5c0.7,0,1.4-0.1,2.1-0.4c0.7-0.2,1.2-0.6,1.7-1
			C1639.2,692.9,1639.7,692.2,1640.2,691.3z M1640.2,687.6c-0.2-0.9-0.6-1.7-1-2.3c-0.5-0.6-1.1-1-1.8-1.4c-0.7-0.3-1.5-0.5-2.4-0.5
			c-1.4,0-2.5,0.4-3.5,1.3c-0.7,0.6-1.2,1.6-1.6,2.9H1640.2z"/>
		<path class="st7" d="M1645.5,682.1h1.8v2.4c0.6-0.9,1.3-1.5,1.9-1.9c0.9-0.5,1.8-0.8,2.8-0.8c0.7,0,1.3,0.1,1.9,0.4
			c0.6,0.3,1.1,0.6,1.5,1c0.4,0.4,0.7,1.1,1,1.9c0.6-1.1,1.3-1.9,2.2-2.5c0.9-0.6,1.8-0.8,2.9-0.8c1,0,1.8,0.2,2.5,0.7
			s1.3,1.2,1.6,2c0.4,0.9,0.5,2.2,0.5,3.9v7.5h-1.8v-7.5c0-1.5-0.1-2.5-0.3-3.1s-0.6-1-1.1-1.3c-0.5-0.3-1.1-0.5-1.8-0.5
			c-0.9,0-1.6,0.3-2.4,0.8s-1.2,1.2-1.6,2c-0.3,0.8-0.5,2.3-0.5,4.2v5.4h-1.8v-7.1c0-1.7-0.1-2.8-0.3-3.4c-0.2-0.6-0.6-1.1-1.1-1.4
			c-0.5-0.4-1.1-0.5-1.8-0.5c-0.8,0-1.6,0.2-2.3,0.7c-0.7,0.5-1.2,1.2-1.6,2s-0.5,2.1-0.5,3.8v5.9h-1.8V682.1z"/>
		<path class="st7" d="M1676.8,683.6l-1.1,1.2c-1-0.9-1.9-1.4-2.8-1.4c-0.6,0-1.1,0.2-1.5,0.6c-0.4,0.4-0.6,0.8-0.6,1.3
			c0,0.4,0.2,0.9,0.5,1.3c0.3,0.4,1.1,0.9,2.1,1.5c1.3,0.7,2.2,1.3,2.7,2c0.5,0.6,0.7,1.4,0.7,2.2c0,1.1-0.4,2.1-1.2,2.9
			s-1.8,1.2-3,1.2c-0.8,0-1.6-0.2-2.3-0.5c-0.7-0.3-1.3-0.8-1.8-1.4l1.1-1.3c0.9,1,1.9,1.5,2.9,1.5c0.7,0,1.3-0.2,1.8-0.7
			c0.5-0.5,0.8-1,0.8-1.6c0-0.5-0.2-1-0.5-1.4c-0.3-0.4-1.1-0.9-2.2-1.5c-1.2-0.6-2.1-1.3-2.5-1.9c-0.5-0.6-0.7-1.3-0.7-2.1
			c0-1,0.4-1.9,1.1-2.6c0.7-0.7,1.6-1,2.7-1C1674.2,681.7,1675.5,682.4,1676.8,683.6z"/>
		<path class="st7" d="M1687.4,677.2h1.9v7.8h9.5v-7.8h1.9v18.7h-1.9v-9h-9.5v9h-1.9V677.2z"/>
		<path class="st7" d="M1718.7,682.1v13.8h-1.8v-2.4c-0.7,0.9-1.6,1.6-2.5,2s-1.9,0.7-3,0.7c-2,0-3.6-0.7-5-2.1
			c-1.4-1.4-2.1-3.1-2.1-5.2c0-2,0.7-3.7,2.1-5.1c1.4-1.4,3.1-2.1,5-2.1c1.1,0,2.2,0.2,3.1,0.7c0.9,0.5,1.7,1.2,2.4,2.2v-2.5H1718.7
			z M1711.6,683.5c-1,0-1.9,0.2-2.7,0.7s-1.5,1.2-2,2c-0.5,0.9-0.7,1.8-0.7,2.8c0,1,0.2,1.9,0.7,2.8c0.5,0.9,1.2,1.6,2,2.1
			c0.8,0.5,1.7,0.7,2.7,0.7c1,0,1.9-0.2,2.8-0.7c0.9-0.5,1.5-1.2,2-2c0.5-0.8,0.7-1.8,0.7-2.8c0-1.6-0.5-2.9-1.6-4
			C1714.4,684,1713.1,683.5,1711.6,683.5z"/>
		<path class="st7" d="M1722,682.1h1.8v2c0.5-0.8,1.1-1.4,1.7-1.8c0.6-0.4,1.2-0.6,1.9-0.6c0.5,0,1,0.2,1.6,0.5l-0.9,1.5
			c-0.4-0.2-0.7-0.2-0.9-0.2c-0.6,0-1.2,0.2-1.7,0.7c-0.5,0.5-1,1.2-1.3,2.3c-0.2,0.8-0.3,2.4-0.3,4.8v4.7h-1.8V682.1z"/>
		<path class="st7" d="M1744.3,676.8v19.1h-1.8v-2.4c-0.7,0.9-1.6,1.6-2.5,2s-1.9,0.7-3,0.7c-2,0-3.6-0.7-5-2.1
			c-1.4-1.4-2.1-3.1-2.1-5.2c0-2,0.7-3.7,2.1-5.1c1.4-1.4,3.1-2.1,5-2.1c1.1,0,2.2,0.2,3.1,0.7c0.9,0.5,1.7,1.2,2.4,2.2v-7.9H1744.3
			z M1737.2,683.5c-1,0-1.9,0.2-2.7,0.7s-1.5,1.2-2,2c-0.5,0.9-0.7,1.8-0.7,2.8c0,1,0.2,1.9,0.7,2.8c0.5,0.9,1.2,1.6,2,2.1
			c0.8,0.5,1.7,0.7,2.7,0.7c1,0,1.9-0.2,2.8-0.7c0.9-0.5,1.5-1.2,2-2c0.5-0.8,0.7-1.8,0.7-2.8c0-1.6-0.5-2.9-1.6-4
			C1740,684,1738.7,683.5,1737.2,683.5z"/>
		<path class="st7" d="M1746.4,682.1h1.8l4.2,10l4.4-10h0.3l4.4,10l4.3-10h1.8l-6,13.8h-0.3l-4.4-9.9l-4.4,9.9h-0.3L1746.4,682.1z"
			/>
		<path class="st7" d="M1783.7,682.1v13.8h-1.8v-2.4c-0.7,0.9-1.6,1.6-2.5,2s-1.9,0.7-3,0.7c-2,0-3.6-0.7-5-2.1
			c-1.4-1.4-2.1-3.1-2.1-5.2c0-2,0.7-3.7,2.1-5.1c1.4-1.4,3.1-2.1,5-2.1c1.1,0,2.2,0.2,3.1,0.7c0.9,0.5,1.7,1.2,2.4,2.2v-2.5H1783.7
			z M1776.6,683.5c-1,0-1.9,0.2-2.7,0.7s-1.5,1.2-2,2c-0.5,0.9-0.7,1.8-0.7,2.8c0,1,0.2,1.9,0.7,2.8c0.5,0.9,1.2,1.6,2,2.1
			c0.8,0.5,1.7,0.7,2.7,0.7c1,0,1.9-0.2,2.8-0.7c0.9-0.5,1.5-1.2,2-2c0.5-0.8,0.7-1.8,0.7-2.8c0-1.6-0.5-2.9-1.6-4
			C1779.4,684,1778.1,683.5,1776.6,683.5z"/>
		<path class="st7" d="M1787,682.1h1.8v2c0.5-0.8,1.1-1.4,1.7-1.8c0.6-0.4,1.2-0.6,1.9-0.6c0.5,0,1,0.2,1.6,0.5l-0.9,1.5
			c-0.4-0.2-0.7-0.2-0.9-0.2c-0.6,0-1.2,0.2-1.7,0.7c-0.5,0.5-1,1.2-1.3,2.3c-0.2,0.8-0.3,2.4-0.3,4.8v4.7h-1.8V682.1z"/>
		<path class="st7" d="M1807.1,691.3l1.5,0.8c-0.5,1-1.1,1.7-1.7,2.3c-0.6,0.6-1.4,1-2.2,1.4c-0.8,0.3-1.7,0.5-2.7,0.5
			c-2.3,0-4-0.7-5.3-2.2s-1.9-3.1-1.9-5c0-1.8,0.5-3.3,1.6-4.7c1.4-1.7,3.2-2.6,5.5-2.6c2.4,0,4.2,0.9,5.6,2.7
			c1,1.3,1.5,2.8,1.5,4.7h-12.4c0,1.6,0.5,2.9,1.5,3.9s2.2,1.5,3.7,1.5c0.7,0,1.4-0.1,2.1-0.4c0.7-0.2,1.2-0.6,1.7-1
			C1806.1,692.9,1806.6,692.2,1807.1,691.3z M1807.1,687.6c-0.2-0.9-0.6-1.7-1-2.3c-0.5-0.6-1.1-1-1.8-1.4c-0.7-0.3-1.5-0.5-2.4-0.5
			c-1.4,0-2.5,0.4-3.5,1.3c-0.7,0.6-1.2,1.6-1.6,2.9H1807.1z"/>
		<path class="st7" d="M1834,689l1.3,1.3c-0.8,0.7-1.6,1.3-2.3,1.9c0.5,0.5,1.2,1.1,2,1.9c0.6,0.6,1.2,1.2,1.7,1.8h-2.6l-2.5-2.6
			c-1.6,1.3-2.8,2.1-3.8,2.5c-1,0.4-2,0.6-3.1,0.6c-1.4,0-2.6-0.4-3.5-1.2c-0.9-0.8-1.3-1.9-1.3-3.1c0-0.9,0.3-1.9,0.9-2.8
			s1.8-2.1,3.6-3.6c-1-1.2-1.7-2.1-2-2.7c-0.3-0.6-0.4-1.1-0.4-1.7c0-0.9,0.4-1.7,1.1-2.3c0.8-0.7,1.9-1.1,3.1-1.1
			c0.8,0,1.5,0.2,2.1,0.5c0.6,0.3,1.1,0.7,1.5,1.3c0.3,0.5,0.5,1.1,0.5,1.7c0,0.6-0.2,1.3-0.7,2c-0.4,0.7-1.3,1.6-2.6,2.7l2.8,3
			l1.9,1.9C1832.7,690.2,1833.4,689.5,1834,689z M1825.6,687.1c-1.6,1.2-2.6,2.1-3.1,2.9s-0.7,1.4-0.7,2c0,0.7,0.3,1.3,0.9,1.9
			c0.6,0.5,1.3,0.8,2.2,0.8c0.7,0,1.3-0.1,1.9-0.4c1-0.4,2.1-1.2,3.4-2.2l-2.9-3C1826.8,688.5,1826.2,687.8,1825.6,687.1z
			 M1825.8,684.6c0.9-0.7,1.6-1.4,2-2.1c0.3-0.5,0.5-0.9,0.5-1.3c0-0.4-0.2-0.8-0.6-1.1c-0.4-0.3-1-0.5-1.7-0.5
			c-0.7,0-1.2,0.2-1.6,0.5c-0.4,0.3-0.6,0.7-0.6,1.1c0,0.3,0.1,0.7,0.3,1C1824.5,683,1825.1,683.8,1825.8,684.6z"/>
		<path class="st7" d="M1844.8,692.4l1.6-1c1.1,2.1,2.4,3.1,3.9,3.1c0.6,0,1.2-0.1,1.8-0.4c0.6-0.3,1-0.7,1.3-1.2
			c0.3-0.5,0.4-1,0.4-1.6c0-0.6-0.2-1.2-0.6-1.8c-0.6-0.8-1.7-1.8-3.2-3c-1.6-1.2-2.5-2-2.9-2.6c-0.7-0.9-1-1.8-1-2.9
			c0-0.8,0.2-1.6,0.6-2.2c0.4-0.7,0.9-1.2,1.6-1.6c0.7-0.4,1.5-0.6,2.3-0.6c0.9,0,1.7,0.2,2.5,0.7c0.8,0.4,1.6,1.2,2.4,2.4l-1.5,1.2
			c-0.7-0.9-1.3-1.5-1.8-1.8c-0.5-0.3-1-0.4-1.6-0.4c-0.8,0-1.4,0.2-1.8,0.7c-0.5,0.5-0.7,1-0.7,1.7c0,0.4,0.1,0.8,0.3,1.2
			c0.2,0.4,0.5,0.8,0.9,1.2c0.2,0.2,1,0.9,2.4,1.9c1.6,1.2,2.7,2.3,3.3,3.2c0.6,0.9,0.9,1.9,0.9,2.8c0,1.4-0.5,2.5-1.5,3.5
			c-1,1-2.3,1.5-3.8,1.5c-1.1,0-2.2-0.3-3.1-0.9C1846.5,694.9,1845.6,693.9,1844.8,692.4z"/>
		<path class="st7" d="M1865.9,681.7c2.1,0,3.9,0.8,5.3,2.3c1.3,1.4,1.9,3.1,1.9,5c0,1.9-0.7,3.6-2,5.1s-3.1,2.2-5.2,2.2
			c-2.1,0-3.9-0.7-5.2-2.2s-2-3.1-2-5.1c0-1.9,0.6-3.6,1.9-5C1862,682.5,1863.8,681.7,1865.9,681.7z M1865.9,683.5
			c-1.5,0-2.7,0.5-3.8,1.6s-1.6,2.4-1.6,4c0,1,0.2,1.9,0.7,2.8s1.1,1.5,2,2c0.8,0.5,1.7,0.7,2.7,0.7c1,0,1.9-0.2,2.7-0.7
			c0.8-0.5,1.5-1.1,2-2c0.5-0.9,0.7-1.8,0.7-2.8c0-1.5-0.5-2.9-1.6-4C1868.7,684,1867.4,683.5,1865.9,683.5z"/>
		<path class="st7" d="M1882.1,676.8v1.7c-0.7-0.3-1.2-0.4-1.7-0.4c-0.3,0-0.6,0.1-0.9,0.2c-0.2,0.1-0.4,0.3-0.4,0.5
			c-0.1,0.2-0.1,0.7-0.1,1.5l0,1.9h2.9v1.5h-2.9l0,12.3h-1.8v-12.3h-1.8v-1.5h1.8v-2.2c0-1,0.1-1.7,0.3-2.1c0.2-0.4,0.5-0.8,0.9-1
			c0.4-0.3,1-0.4,1.6-0.4C1880.6,676.4,1881.3,676.5,1882.1,676.8z"/>
		<path class="st7" d="M1886.1,677h1.8v5.1h2.8v1.5h-2.8v12.3h-1.8v-12.3h-2.4v-1.5h2.4V677z"/>
		<path class="st7" d="M1891.5,682.1h1.8l4.2,10l4.4-10h0.3l4.4,10l4.3-10h1.8l-6,13.8h-0.3l-4.4-9.9l-4.4,9.9h-0.3L1891.5,682.1z"
			/>
		<path class="st7" d="M1928.8,682.1v13.8h-1.8v-2.4c-0.7,0.9-1.6,1.6-2.5,2s-1.9,0.7-3,0.7c-2,0-3.6-0.7-5-2.1
			c-1.4-1.4-2.1-3.1-2.1-5.2c0-2,0.7-3.7,2.1-5.1c1.4-1.4,3.1-2.1,5-2.1c1.1,0,2.2,0.2,3.1,0.7c0.9,0.5,1.7,1.2,2.4,2.2v-2.5H1928.8
			z M1921.7,683.5c-1,0-1.9,0.2-2.7,0.7s-1.5,1.2-2,2c-0.5,0.9-0.7,1.8-0.7,2.8c0,1,0.2,1.9,0.7,2.8c0.5,0.9,1.2,1.6,2,2.1
			c0.8,0.5,1.7,0.7,2.7,0.7c1,0,1.9-0.2,2.8-0.7c0.9-0.5,1.5-1.2,2-2c0.5-0.8,0.7-1.8,0.7-2.8c0-1.6-0.5-2.9-1.6-4
			C1924.5,684,1923.2,683.5,1921.7,683.5z"/>
		<path class="st7" d="M1932.1,682.1h1.8v2c0.5-0.8,1.1-1.4,1.7-1.8c0.6-0.4,1.2-0.6,1.9-0.6c0.5,0,1,0.2,1.6,0.5l-0.9,1.5
			c-0.4-0.2-0.7-0.2-0.9-0.2c-0.6,0-1.2,0.2-1.7,0.7c-0.5,0.5-1,1.2-1.3,2.3c-0.2,0.8-0.3,2.4-0.3,4.8v4.7h-1.8V682.1z"/>
		<path class="st7" d="M1952.2,691.3l1.5,0.8c-0.5,1-1.1,1.7-1.7,2.3c-0.6,0.6-1.4,1-2.2,1.4c-0.8,0.3-1.7,0.5-2.7,0.5
			c-2.3,0-4-0.7-5.3-2.2s-1.9-3.1-1.9-5c0-1.8,0.5-3.3,1.6-4.7c1.4-1.7,3.2-2.6,5.5-2.6c2.4,0,4.2,0.9,5.6,2.7
			c1,1.3,1.5,2.8,1.5,4.7h-12.4c0,1.6,0.5,2.9,1.5,3.9s2.2,1.5,3.7,1.5c0.7,0,1.4-0.1,2.1-0.4c0.7-0.2,1.2-0.6,1.7-1
			C1951.2,692.9,1951.7,692.2,1952.2,691.3z M1952.2,687.6c-0.2-0.9-0.6-1.7-1-2.3c-0.5-0.6-1.1-1-1.8-1.4c-0.7-0.3-1.5-0.5-2.4-0.5
			c-1.4,0-2.5,0.4-3.5,1.3c-0.7,0.6-1.2,1.6-1.6,2.9H1952.2z"/>
		<path class="st7" d="M1965,695.9v-18.7h3.9c2.8,0,4.8,0.2,6.1,0.7c1.8,0.6,3.2,1.7,4.2,3.3c1,1.6,1.5,3.4,1.5,5.6
			c0,1.9-0.4,3.5-1.2,4.9c-0.8,1.4-1.9,2.5-3.1,3.1c-1.3,0.7-3.1,1-5.4,1H1965z M1966.8,694.1h2.2c2.6,0,4.4-0.2,5.4-0.5
			c1.4-0.5,2.5-1.3,3.3-2.5c0.8-1.2,1.2-2.6,1.2-4.4c0-1.8-0.4-3.3-1.3-4.6c-0.9-1.3-2.1-2.2-3.6-2.6c-1.2-0.4-3.1-0.5-5.8-0.5h-1.3
			V694.1z"/>
		<path class="st7" d="M1995.7,691.3l1.5,0.8c-0.5,1-1.1,1.7-1.7,2.3c-0.6,0.6-1.4,1-2.2,1.4c-0.8,0.3-1.7,0.5-2.7,0.5
			c-2.3,0-4-0.7-5.3-2.2s-1.9-3.1-1.9-5c0-1.8,0.5-3.3,1.6-4.7c1.4-1.7,3.2-2.6,5.5-2.6c2.4,0,4.2,0.9,5.6,2.7
			c1,1.3,1.5,2.8,1.5,4.7h-12.4c0,1.6,0.5,2.9,1.5,3.9s2.2,1.5,3.7,1.5c0.7,0,1.4-0.1,2.1-0.4c0.7-0.2,1.2-0.6,1.7-1
			C1994.6,692.9,1995.1,692.2,1995.7,691.3z M1995.7,687.6c-0.2-0.9-0.6-1.7-1-2.3c-0.5-0.6-1.1-1-1.8-1.4c-0.7-0.3-1.5-0.5-2.4-0.5
			c-1.4,0-2.5,0.4-3.5,1.3c-0.7,0.6-1.2,1.6-1.6,2.9H1995.7z"/>
		<path class="st7" d="M1999.6,682.1h1.9l4.6,10.1l4.6-10.1h1.9l-6.3,13.8h-0.3L1999.6,682.1z"/>
		<path class="st7" d="M2027,691.3l1.5,0.8c-0.5,1-1.1,1.7-1.7,2.3c-0.6,0.6-1.4,1-2.2,1.4c-0.8,0.3-1.7,0.5-2.7,0.5
			c-2.3,0-4-0.7-5.3-2.2s-1.9-3.1-1.9-5c0-1.8,0.5-3.3,1.6-4.7c1.4-1.7,3.2-2.6,5.5-2.6c2.4,0,4.2,0.9,5.6,2.7
			c1,1.3,1.5,2.8,1.5,4.7h-12.4c0,1.6,0.5,2.9,1.5,3.9s2.2,1.5,3.7,1.5c0.7,0,1.4-0.1,2.1-0.4c0.7-0.2,1.2-0.6,1.7-1
			C2025.9,692.9,2026.4,692.2,2027,691.3z M2027,687.6c-0.2-0.9-0.6-1.7-1-2.3c-0.5-0.6-1.1-1-1.8-1.4c-0.7-0.3-1.5-0.5-2.4-0.5
			c-1.4,0-2.5,0.4-3.5,1.3c-0.7,0.6-1.2,1.6-1.6,2.9H2027z"/>
		<path class="st7" d="M2032,676.8h1.8v19.1h-1.8V676.8z"/>
		<path class="st7" d="M2044,681.7c2.1,0,3.9,0.8,5.3,2.3c1.3,1.4,1.9,3.1,1.9,5c0,1.9-0.7,3.6-2,5.1s-3.1,2.2-5.2,2.2
			c-2.1,0-3.9-0.7-5.2-2.2s-2-3.1-2-5.1c0-1.9,0.6-3.6,1.9-5C2040.1,682.5,2041.9,681.7,2044,681.7z M2044,683.5
			c-1.5,0-2.7,0.5-3.8,1.6s-1.6,2.4-1.6,4c0,1,0.2,1.9,0.7,2.8s1.1,1.5,2,2c0.8,0.5,1.7,0.7,2.7,0.7c1,0,1.9-0.2,2.7-0.7
			c0.8-0.5,1.5-1.1,2-2c0.5-0.9,0.7-1.8,0.7-2.8c0-1.5-0.5-2.9-1.6-4C2046.7,684,2045.5,683.5,2044,683.5z"/>
		<path class="st7" d="M2054.5,682.1h1.8v2.5c0.7-1,1.5-1.7,2.4-2.2s1.9-0.7,3.1-0.7c2,0,3.6,0.7,5,2.1c1.4,1.4,2.1,3.1,2.1,5.1
			c0,2-0.7,3.8-2.1,5.2c-1.4,1.4-3,2.1-5,2.1c-1.1,0-2.1-0.2-3-0.7c-0.9-0.5-1.8-1.1-2.5-2v7.4h-1.8V682.1z M2061.6,683.5
			c-1.5,0-2.8,0.5-3.9,1.6c-1.1,1.1-1.6,2.4-1.6,4c0,1,0.2,2,0.7,2.8c0.5,0.8,1.1,1.5,2,2s1.8,0.7,2.8,0.7c1,0,1.9-0.2,2.7-0.7
			c0.8-0.5,1.5-1.2,2-2.1c0.5-0.9,0.7-1.8,0.7-2.8c0-1-0.2-1.9-0.7-2.8c-0.5-0.9-1.2-1.6-2-2S2062.6,683.5,2061.6,683.5z"/>
		<path class="st7" d="M2083.8,691.3l1.5,0.8c-0.5,1-1.1,1.7-1.7,2.3c-0.6,0.6-1.4,1-2.2,1.4c-0.8,0.3-1.7,0.5-2.7,0.5
			c-2.3,0-4-0.7-5.3-2.2s-1.9-3.1-1.9-5c0-1.8,0.5-3.3,1.6-4.7c1.4-1.7,3.2-2.6,5.5-2.6c2.4,0,4.2,0.9,5.6,2.7
			c1,1.3,1.5,2.8,1.5,4.7h-12.4c0,1.6,0.5,2.9,1.5,3.9s2.2,1.5,3.7,1.5c0.7,0,1.4-0.1,2.1-0.4c0.7-0.2,1.2-0.6,1.7-1
			C2082.8,692.9,2083.3,692.2,2083.8,691.3z M2083.8,687.6c-0.2-0.9-0.6-1.7-1-2.3c-0.5-0.6-1.1-1-1.8-1.4c-0.7-0.3-1.5-0.5-2.4-0.5
			c-1.4,0-2.5,0.4-3.5,1.3c-0.7,0.6-1.2,1.6-1.6,2.9H2083.8z"/>
		<path class="st7" d="M2088.4,682.1h1.8v2c0.5-0.8,1.1-1.4,1.7-1.8c0.6-0.4,1.2-0.6,1.9-0.6c0.5,0,1,0.2,1.6,0.5l-0.9,1.5
			c-0.4-0.2-0.7-0.2-0.9-0.2c-0.6,0-1.2,0.2-1.7,0.7c-0.5,0.5-1,1.2-1.3,2.3c-0.2,0.8-0.3,2.4-0.3,4.8v4.7h-1.8V682.1z"/>
	</g>
	<g class="st12">
		<path class="st13" d="M1285.2,774.7c0,1.5-0.1,2.9-0.4,4c-0.3,1.2-0.7,2.2-1.2,3c-0.5,0.8-1.2,1.4-1.9,1.8
			c-0.8,0.4-1.6,0.6-2.6,0.6c-0.9,0-1.7-0.2-2.4-0.6c-0.7-0.4-1.3-1-1.8-1.8c-0.5-0.8-0.9-1.7-1.1-2.8c-0.3-1.1-0.4-2.4-0.4-3.9
			c0-1.6,0.1-3,0.4-4.2s0.7-2.2,1.2-3.1c0.5-0.8,1.2-1.4,1.9-1.9c0.8-0.4,1.6-0.6,2.6-0.6C1283.3,765.3,1285.2,768.4,1285.2,774.7z
			 M1283.1,774.9c0-5.2-1.2-7.8-3.7-7.8c-2.6,0-3.9,2.6-3.9,7.9c0,4.9,1.3,7.4,3.8,7.4C1281.8,782.4,1283.1,779.9,1283.1,774.9z"/>
		<path class="st13" d="M1297.9,770.8l-4.4,6.6l4.3,6.4h-2.4l-2.6-4.2c-0.2-0.3-0.4-0.6-0.6-1h-0.1c0,0.1-0.2,0.4-0.6,1l-2.6,4.2
			h-2.4l4.4-6.4l-4.2-6.6h2.4l2.5,4.4c0.2,0.3,0.4,0.7,0.5,1h0.1l3.2-5.5H1297.9z"/>
		<path class="st13" d="M1309,765.6v12h2.3v1.9h-2.3v4.3h-2.1v-4.3h-8.6v-1.8c0.8-0.9,1.6-1.9,2.4-2.9c0.8-1,1.6-2.1,2.3-3.1
			c0.7-1,1.4-2.1,2.1-3.1c0.6-1,1.2-2,1.6-3H1309z M1300.8,777.7h6.2v-8.9c-0.6,1.1-1.2,2.1-1.8,3c-0.6,0.9-1.1,1.7-1.6,2.4
			c-0.5,0.7-1,1.4-1.5,1.9C1301.6,776.6,1301.2,777.1,1300.8,777.7z"/>
		<path class="st13" d="M1321.4,783.8h-2.1v-15.7c-0.2,0.2-0.4,0.3-0.7,0.6c-0.3,0.2-0.7,0.4-1,0.6c-0.4,0.2-0.8,0.4-1.2,0.6
			c-0.4,0.2-0.8,0.3-1.3,0.4v-2.1c0.5-0.1,0.9-0.3,1.5-0.5c0.5-0.2,1-0.5,1.5-0.7c0.5-0.3,1-0.5,1.4-0.8c0.4-0.3,0.8-0.6,1.1-0.9
			h0.8V783.8z"/>
		<path class="st13" d="M1346.3,774.7c0,1.5-0.1,2.9-0.4,4c-0.3,1.2-0.7,2.2-1.2,3c-0.5,0.8-1.2,1.4-1.9,1.8
			c-0.8,0.4-1.6,0.6-2.6,0.6c-0.9,0-1.7-0.2-2.4-0.6c-0.7-0.4-1.3-1-1.8-1.8c-0.5-0.8-0.9-1.7-1.1-2.8c-0.3-1.1-0.4-2.4-0.4-3.9
			c0-1.6,0.1-3,0.4-4.2s0.7-2.2,1.2-3.1c0.5-0.8,1.2-1.4,1.9-1.9c0.8-0.4,1.6-0.6,2.6-0.6C1344.4,765.3,1346.3,768.4,1346.3,774.7z
			 M1344.2,774.9c0-5.2-1.2-7.8-3.7-7.8c-2.6,0-3.9,2.6-3.9,7.9c0,4.9,1.3,7.4,3.8,7.4C1342.9,782.4,1344.2,779.9,1344.2,774.9z"/>
		<path class="st13" d="M1359,770.8l-4.4,6.6l4.3,6.4h-2.4l-2.6-4.2c-0.2-0.3-0.4-0.6-0.6-1h-0.1c0,0.1-0.2,0.4-0.6,1l-2.6,4.2h-2.4
			l4.4-6.4l-4.2-6.6h2.4l2.5,4.4c0.2,0.3,0.4,0.7,0.5,1h0.1l3.2-5.5H1359z"/>
		<path class="st13" d="M1372.3,778.1c0,0.9-0.1,1.7-0.4,2.5c-0.3,0.7-0.7,1.4-1.2,1.9s-1.1,1-1.8,1.3c-0.7,0.3-1.5,0.5-2.3,0.5
			c-0.9,0-1.7-0.2-2.5-0.6s-1.3-0.9-1.8-1.6c-0.5-0.7-0.9-1.6-1.1-2.6c-0.3-1-0.4-2.2-0.4-3.5c0-1.6,0.2-3,0.5-4.3
			c0.4-1.3,0.9-2.4,1.5-3.3c0.6-0.9,1.4-1.6,2.3-2.1s1.9-0.7,3.1-0.7c1.3,0,2.3,0.2,3,0.5v2c-0.9-0.5-1.9-0.7-3-0.7
			c-0.8,0-1.5,0.2-2.2,0.5c-0.7,0.4-1.2,0.9-1.7,1.5c-0.5,0.7-0.8,1.5-1.1,2.4c-0.2,0.9-0.4,2-0.4,3.1h0.1c0.8-1.5,2.2-2.3,4.2-2.3
			c0.8,0,1.5,0.1,2.2,0.4c0.6,0.3,1.2,0.7,1.6,1.1c0.5,0.5,0.8,1.1,1,1.8C1372.2,776.5,1372.3,777.2,1372.3,778.1z M1370.2,778.3
			c0-0.6-0.1-1.2-0.2-1.7c-0.2-0.5-0.4-0.9-0.7-1.3c-0.3-0.4-0.7-0.6-1.1-0.8c-0.4-0.2-0.9-0.3-1.5-0.3c-0.5,0-1,0.1-1.4,0.3
			c-0.4,0.2-0.8,0.5-1.1,0.8c-0.3,0.3-0.6,0.7-0.8,1.2c-0.2,0.4-0.3,0.9-0.3,1.4c0,0.6,0.1,1.2,0.3,1.8c0.2,0.5,0.4,1,0.7,1.4
			c0.3,0.4,0.7,0.7,1.1,1c0.4,0.2,0.9,0.3,1.5,0.3c0.5,0,1-0.1,1.4-0.3c0.4-0.2,0.8-0.5,1.1-0.8s0.5-0.8,0.7-1.3
			C1370.1,779.5,1370.2,778.9,1370.2,778.3z"/>
		<path class="st13" d="M1384.3,783.2c-1,0.6-2.2,0.9-3.6,0.9c-1.9,0-3.3-0.6-4.5-1.8c-1.1-1.2-1.7-2.8-1.7-4.7
			c0-2.1,0.6-3.9,1.8-5.2c1.2-1.3,2.9-1.9,4.9-1.9c1.1,0,2.2,0.2,3,0.6v2.1c-1-0.7-2-1-3.1-1c-1.3,0-2.4,0.5-3.3,1.4
			c-0.9,1-1.3,2.2-1.3,3.8c0,1.5,0.4,2.7,1.2,3.6s1.9,1.3,3.2,1.3c1.1,0,2.2-0.4,3.2-1.1V783.2z"/>
		<path class="st13" d="M1405.4,774.7c0,1.5-0.1,2.9-0.4,4c-0.3,1.2-0.7,2.2-1.2,3c-0.5,0.8-1.2,1.4-1.9,1.8
			c-0.8,0.4-1.6,0.6-2.6,0.6c-0.9,0-1.7-0.2-2.4-0.6c-0.7-0.4-1.3-1-1.8-1.8c-0.5-0.8-0.9-1.7-1.1-2.8c-0.3-1.1-0.4-2.4-0.4-3.9
			c0-1.6,0.1-3,0.4-4.2s0.7-2.2,1.2-3.1c0.5-0.8,1.2-1.4,1.9-1.9c0.8-0.4,1.6-0.6,2.6-0.6C1403.5,765.3,1405.4,768.4,1405.4,774.7z
			 M1403.3,774.9c0-5.2-1.2-7.8-3.7-7.8c-2.6,0-3.9,2.6-3.9,7.9c0,4.9,1.3,7.4,3.8,7.4C1402,782.4,1403.3,779.9,1403.3,774.9z"/>
		<path class="st13" d="M1418.1,770.8l-4.4,6.6l4.3,6.4h-2.4l-2.6-4.2c-0.2-0.3-0.4-0.6-0.6-1h-0.1c0,0.1-0.2,0.4-0.6,1l-2.6,4.2
			h-2.4l4.4-6.4l-4.2-6.6h2.4l2.5,4.4c0.2,0.3,0.4,0.7,0.5,1h0.1l3.2-5.5H1418.1z"/>
		<path class="st13" d="M1431.2,766.8c-0.3,0.5-0.6,1.1-1,1.8s-0.8,1.5-1.3,2.4c-0.4,0.9-0.9,1.9-1.3,2.9s-0.9,2.1-1.3,3.2
			c-0.4,1.1-0.7,2.2-1,3.3c-0.3,1.1-0.5,2.2-0.7,3.3h-2.2c0.2-1.1,0.4-2.2,0.7-3.3c0.3-1.1,0.7-2.2,1.1-3.3c0.4-1.1,0.8-2.1,1.3-3.1
			c0.4-1,0.9-1.9,1.3-2.8c0.4-0.8,0.8-1.6,1.2-2.2c0.4-0.6,0.6-1.2,0.8-1.5h-9.1v-1.9h11.6V766.8z"/>
		<path class="st13" d="M1445.4,774.7c0,1.5-0.1,2.9-0.4,4c-0.3,1.2-0.7,2.2-1.2,3c-0.5,0.8-1.2,1.4-1.9,1.8
			c-0.8,0.4-1.6,0.6-2.6,0.6c-0.9,0-1.7-0.2-2.4-0.6c-0.7-0.4-1.3-1-1.8-1.8c-0.5-0.8-0.9-1.7-1.1-2.8c-0.3-1.1-0.4-2.4-0.4-3.9
			c0-1.6,0.1-3,0.4-4.2s0.7-2.2,1.2-3.1c0.5-0.8,1.2-1.4,1.9-1.9c0.8-0.4,1.6-0.6,2.6-0.6C1443.5,765.3,1445.4,768.4,1445.4,774.7z
			 M1443.3,774.9c0-5.2-1.2-7.8-3.7-7.8c-2.6,0-3.9,2.6-3.9,7.9c0,4.9,1.3,7.4,3.8,7.4C1442,782.4,1443.3,779.9,1443.3,774.9z"/>
		<path class="st13" d="M1466.5,774.7c0,1.5-0.1,2.9-0.4,4c-0.3,1.2-0.7,2.2-1.2,3c-0.5,0.8-1.2,1.4-1.9,1.8
			c-0.8,0.4-1.6,0.6-2.6,0.6c-0.9,0-1.7-0.2-2.4-0.6c-0.7-0.4-1.3-1-1.8-1.8c-0.5-0.8-0.9-1.7-1.1-2.8c-0.3-1.1-0.4-2.4-0.4-3.9
			c0-1.6,0.1-3,0.4-4.2s0.7-2.2,1.2-3.1c0.5-0.8,1.2-1.4,1.9-1.9c0.8-0.4,1.6-0.6,2.6-0.6C1464.6,765.3,1466.5,768.4,1466.5,774.7z
			 M1464.4,774.9c0-5.2-1.2-7.8-3.7-7.8c-2.6,0-3.9,2.6-3.9,7.9c0,4.9,1.3,7.4,3.8,7.4C1463.1,782.4,1464.4,779.9,1464.4,774.9z"/>
		<path class="st13" d="M1479.2,770.8l-4.4,6.6l4.3,6.4h-2.4l-2.6-4.2c-0.2-0.3-0.4-0.6-0.6-1h-0.1c0,0.1-0.2,0.4-0.6,1l-2.6,4.2
			h-2.4l4.4-6.4l-4.2-6.6h2.4l2.5,4.4c0.2,0.3,0.4,0.7,0.5,1h0.1l3.2-5.5H1479.2z"/>
		<path class="st13" d="M1492.5,778.1c0,0.9-0.1,1.7-0.4,2.5c-0.3,0.7-0.7,1.4-1.2,1.9s-1.1,1-1.8,1.3c-0.7,0.3-1.5,0.5-2.3,0.5
			c-0.9,0-1.7-0.2-2.5-0.6s-1.3-0.9-1.8-1.6c-0.5-0.7-0.9-1.6-1.1-2.6c-0.3-1-0.4-2.2-0.4-3.5c0-1.6,0.2-3,0.5-4.3
			c0.4-1.3,0.9-2.4,1.5-3.3c0.6-0.9,1.4-1.6,2.3-2.1s1.9-0.7,3.1-0.7c1.3,0,2.3,0.2,3,0.5v2c-0.9-0.5-1.9-0.7-3-0.7
			c-0.8,0-1.5,0.2-2.2,0.5c-0.7,0.4-1.2,0.9-1.7,1.5c-0.5,0.7-0.8,1.5-1.1,2.4c-0.2,0.9-0.4,2-0.4,3.1h0.1c0.8-1.5,2.2-2.3,4.2-2.3
			c0.8,0,1.5,0.1,2.2,0.4c0.6,0.3,1.2,0.7,1.6,1.1c0.5,0.5,0.8,1.1,1,1.8C1492.4,776.5,1492.5,777.2,1492.5,778.1z M1490.4,778.3
			c0-0.6-0.1-1.2-0.2-1.7c-0.2-0.5-0.4-0.9-0.7-1.3c-0.3-0.4-0.7-0.6-1.1-0.8c-0.4-0.2-0.9-0.3-1.5-0.3c-0.5,0-1,0.1-1.4,0.3
			c-0.4,0.2-0.8,0.5-1.1,0.8c-0.3,0.3-0.6,0.7-0.8,1.2c-0.2,0.4-0.3,0.9-0.3,1.4c0,0.6,0.1,1.2,0.3,1.8c0.2,0.5,0.4,1,0.7,1.4
			c0.3,0.4,0.7,0.7,1.1,1c0.4,0.2,0.9,0.3,1.5,0.3c0.5,0,1-0.1,1.4-0.3c0.4-0.2,0.8-0.5,1.1-0.8s0.5-0.8,0.7-1.3
			C1490.3,779.5,1490.4,778.9,1490.4,778.3z"/>
		<path class="st13" d="M1505.8,778.3c0,0.9-0.2,1.7-0.5,2.4s-0.7,1.3-1.3,1.9c-0.6,0.5-1.2,0.9-2,1.2c-0.8,0.3-1.7,0.4-2.7,0.4
			c-1.7,0-2.9-0.3-3.8-0.8v-2.2c1.2,0.8,2.5,1.2,3.8,1.2c0.7,0,1.3-0.1,1.8-0.3c0.5-0.2,1-0.5,1.4-0.8c0.4-0.3,0.7-0.8,0.9-1.3
			c0.2-0.5,0.3-1,0.3-1.6c0-1.2-0.4-2.1-1.2-2.8c-0.8-0.7-2-1-3.5-1c-0.2,0-0.5,0-0.8,0c-0.3,0-0.5,0-0.8,0c-0.3,0-0.5,0-0.8,0
			c-0.3,0-0.5,0-0.7,0.1l0.6-9.1h8.4v1.9h-6.6l-0.4,5.3c0.3,0,0.6,0,0.9,0c0.3,0,0.6,0,0.8,0c1,0,1.8,0.1,2.6,0.4s1.4,0.6,1.9,1.1
			c0.5,0.5,0.9,1,1.2,1.7C1505.7,776.7,1505.8,777.4,1505.8,778.3z"/>
		<path class="st13" d="M1527.6,774.7c0,1.5-0.1,2.9-0.4,4c-0.3,1.2-0.7,2.2-1.2,3c-0.5,0.8-1.2,1.4-1.9,1.8
			c-0.8,0.4-1.6,0.6-2.6,0.6c-0.9,0-1.7-0.2-2.4-0.6c-0.7-0.4-1.3-1-1.8-1.8c-0.5-0.8-0.9-1.7-1.1-2.8c-0.3-1.1-0.4-2.4-0.4-3.9
			c0-1.6,0.1-3,0.4-4.2s0.7-2.2,1.2-3.1c0.5-0.8,1.2-1.4,1.9-1.9c0.8-0.4,1.6-0.6,2.6-0.6C1525.7,765.3,1527.6,768.4,1527.6,774.7z
			 M1525.5,774.9c0-5.2-1.2-7.8-3.7-7.8c-2.6,0-3.9,2.6-3.9,7.9c0,4.9,1.3,7.4,3.8,7.4C1524.2,782.4,1525.5,779.9,1525.5,774.9z"/>
		<path class="st13" d="M1540.3,770.8l-4.4,6.6l4.3,6.4h-2.4l-2.6-4.2c-0.2-0.3-0.4-0.6-0.6-1h-0.1c0,0.1-0.2,0.4-0.6,1l-2.6,4.2
			h-2.4l4.4-6.4l-4.2-6.6h2.4l2.5,4.4c0.2,0.3,0.4,0.7,0.5,1h0.1l3.2-5.5H1540.3z"/>
		<path class="st13" d="M1553.5,766.8c-0.3,0.5-0.6,1.1-1,1.8s-0.8,1.5-1.3,2.4c-0.4,0.9-0.9,1.9-1.3,2.9s-0.9,2.1-1.3,3.2
			c-0.4,1.1-0.7,2.2-1,3.3c-0.3,1.1-0.5,2.2-0.7,3.3h-2.2c0.2-1.1,0.4-2.2,0.7-3.3c0.3-1.1,0.7-2.2,1.1-3.3c0.4-1.1,0.8-2.1,1.3-3.1
			c0.4-1,0.9-1.9,1.3-2.8c0.4-0.8,0.8-1.6,1.2-2.2c0.4-0.6,0.6-1.2,0.8-1.5h-9.1v-1.9h11.6V766.8z"/>
		<path class="st13" d="M1564.4,770.4c0-0.6-0.1-1-0.3-1.5c-0.2-0.4-0.4-0.8-0.7-1c-0.3-0.3-0.7-0.5-1.1-0.6s-0.8-0.2-1.3-0.2
			c-0.4,0-0.8,0.1-1.2,0.2c-0.4,0.1-0.8,0.3-1.1,0.5s-0.7,0.4-1.1,0.7s-0.7,0.6-1,0.9v-2.2c0.6-0.6,1.2-1,2-1.3
			c0.7-0.3,1.6-0.5,2.6-0.5c0.7,0,1.4,0.1,2.1,0.3c0.6,0.2,1.2,0.5,1.7,0.9c0.5,0.4,0.8,0.9,1.1,1.5s0.4,1.3,0.4,2.1
			c0,0.7-0.1,1.4-0.2,2s-0.4,1.1-0.7,1.7c-0.3,0.5-0.8,1-1.3,1.5s-1.1,1-1.8,1.4c-0.9,0.6-1.6,1.1-2.1,1.6c-0.6,0.4-1,0.8-1.3,1.2
			c-0.3,0.4-0.6,0.8-0.7,1.1c-0.1,0.4-0.2,0.8-0.2,1.3h9.1v1.9H1556v-0.9c0-0.8,0.1-1.5,0.3-2.1c0.2-0.6,0.4-1.2,0.8-1.7
			c0.4-0.5,0.9-1.1,1.5-1.6c0.6-0.5,1.4-1.1,2.3-1.8c0.7-0.5,1.2-0.9,1.7-1.4s0.8-0.9,1.1-1.3c0.3-0.4,0.5-0.9,0.6-1.3
			C1564.4,771.4,1564.4,770.9,1564.4,770.4z"/>
		<path class="st13" d="M1588.7,774.7c0,1.5-0.1,2.9-0.4,4c-0.3,1.2-0.7,2.2-1.2,3c-0.5,0.8-1.2,1.4-1.9,1.8
			c-0.8,0.4-1.6,0.6-2.6,0.6c-0.9,0-1.7-0.2-2.4-0.6c-0.7-0.4-1.3-1-1.8-1.8c-0.5-0.8-0.9-1.7-1.1-2.8c-0.3-1.1-0.4-2.4-0.4-3.9
			c0-1.6,0.1-3,0.4-4.2s0.7-2.2,1.2-3.1c0.5-0.8,1.2-1.4,1.9-1.9c0.8-0.4,1.6-0.6,2.6-0.6C1586.8,765.3,1588.7,768.4,1588.7,774.7z
			 M1586.6,774.9c0-5.2-1.2-7.8-3.7-7.8c-2.6,0-3.9,2.6-3.9,7.9c0,4.9,1.3,7.4,3.8,7.4C1585.3,782.4,1586.6,779.9,1586.6,774.9z"/>
		<path class="st13" d="M1601.4,770.8l-4.4,6.6l4.3,6.4h-2.4l-2.6-4.2c-0.2-0.3-0.4-0.6-0.6-1h-0.1c0,0.1-0.2,0.4-0.6,1l-2.6,4.2
			h-2.4l4.4-6.4l-4.2-6.6h2.4l2.5,4.4c0.2,0.3,0.4,0.7,0.5,1h0.1l3.2-5.5H1601.4z"/>
		<path class="st13" d="M1614.7,778.1c0,0.9-0.1,1.7-0.4,2.5c-0.3,0.7-0.7,1.4-1.2,1.9s-1.1,1-1.8,1.3c-0.7,0.3-1.5,0.5-2.3,0.5
			c-0.9,0-1.7-0.2-2.5-0.6s-1.3-0.9-1.8-1.6c-0.5-0.7-0.9-1.6-1.1-2.6c-0.3-1-0.4-2.2-0.4-3.5c0-1.6,0.2-3,0.5-4.3
			c0.4-1.3,0.9-2.4,1.5-3.3c0.6-0.9,1.4-1.6,2.3-2.1s1.9-0.7,3.1-0.7c1.3,0,2.3,0.2,3,0.5v2c-0.9-0.5-1.9-0.7-3-0.7
			c-0.8,0-1.5,0.2-2.2,0.5c-0.7,0.4-1.2,0.9-1.7,1.5c-0.5,0.7-0.8,1.5-1.1,2.4c-0.2,0.9-0.4,2-0.4,3.1h0.1c0.8-1.5,2.2-2.3,4.2-2.3
			c0.8,0,1.5,0.1,2.2,0.4c0.6,0.3,1.2,0.7,1.6,1.1c0.5,0.5,0.8,1.1,1,1.8C1614.6,776.5,1614.7,777.2,1614.7,778.1z M1612.6,778.3
			c0-0.6-0.1-1.2-0.2-1.7c-0.2-0.5-0.4-0.9-0.7-1.3c-0.3-0.4-0.7-0.6-1.1-0.8c-0.4-0.2-0.9-0.3-1.5-0.3c-0.5,0-1,0.1-1.4,0.3
			c-0.4,0.2-0.8,0.5-1.1,0.8c-0.3,0.3-0.6,0.7-0.8,1.2c-0.2,0.4-0.3,0.9-0.3,1.4c0,0.6,0.1,1.2,0.3,1.8c0.2,0.5,0.4,1,0.7,1.4
			c0.3,0.4,0.7,0.7,1.1,1c0.4,0.2,0.9,0.3,1.5,0.3c0.5,0,1-0.1,1.4-0.3c0.4-0.2,0.8-0.5,1.1-0.8s0.5-0.8,0.7-1.3
			C1612.5,779.5,1612.6,778.9,1612.6,778.3z"/>
		<path class="st13" d="M1628,778.3c0,0.9-0.2,1.7-0.5,2.4s-0.7,1.3-1.3,1.9c-0.6,0.5-1.2,0.9-2,1.2c-0.8,0.3-1.7,0.4-2.7,0.4
			c-1.7,0-2.9-0.3-3.8-0.8v-2.2c1.2,0.8,2.5,1.2,3.8,1.2c0.7,0,1.3-0.1,1.8-0.3c0.5-0.2,1-0.5,1.4-0.8c0.4-0.3,0.7-0.8,0.9-1.3
			c0.2-0.5,0.3-1,0.3-1.6c0-1.2-0.4-2.1-1.2-2.8c-0.8-0.7-2-1-3.5-1c-0.2,0-0.5,0-0.8,0c-0.3,0-0.5,0-0.8,0c-0.3,0-0.5,0-0.8,0
			c-0.3,0-0.5,0-0.7,0.1l0.6-9.1h8.4v1.9h-6.6l-0.4,5.3c0.3,0,0.6,0,0.9,0c0.3,0,0.6,0,0.8,0c1,0,1.8,0.1,2.6,0.4s1.4,0.6,1.9,1.1
			c0.5,0.5,0.9,1,1.2,1.7C1627.9,776.7,1628,777.4,1628,778.3z"/>
		<path class="st13" d="M1649.8,774.7c0,1.5-0.1,2.9-0.4,4c-0.3,1.2-0.7,2.2-1.2,3c-0.5,0.8-1.2,1.4-1.9,1.8
			c-0.8,0.4-1.6,0.6-2.6,0.6c-0.9,0-1.7-0.2-2.4-0.6c-0.7-0.4-1.3-1-1.8-1.8c-0.5-0.8-0.9-1.7-1.1-2.8c-0.3-1.1-0.4-2.4-0.4-3.9
			c0-1.6,0.1-3,0.4-4.2s0.7-2.2,1.2-3.1c0.5-0.8,1.2-1.4,1.9-1.9c0.8-0.4,1.6-0.6,2.6-0.6C1647.9,765.3,1649.8,768.4,1649.8,774.7z
			 M1647.7,774.9c0-5.2-1.2-7.8-3.7-7.8c-2.6,0-3.9,2.6-3.9,7.9c0,4.9,1.3,7.4,3.8,7.4C1646.4,782.4,1647.7,779.9,1647.7,774.9z"/>
		<path class="st13" d="M1662.5,770.8l-4.4,6.6l4.3,6.4h-2.4l-2.6-4.2c-0.2-0.3-0.4-0.6-0.6-1h-0.1c0,0.1-0.2,0.4-0.6,1l-2.6,4.2
			h-2.4l4.4-6.4l-4.2-6.6h2.4l2.5,4.4c0.2,0.3,0.4,0.7,0.5,1h0.1l3.2-5.5H1662.5z"/>
		<path class="st13" d="M1675.8,778.1c0,0.9-0.1,1.7-0.4,2.5c-0.3,0.7-0.7,1.4-1.2,1.9s-1.1,1-1.8,1.3c-0.7,0.3-1.5,0.5-2.3,0.5
			c-0.9,0-1.7-0.2-2.5-0.6s-1.3-0.9-1.8-1.6c-0.5-0.7-0.9-1.6-1.1-2.6c-0.3-1-0.4-2.2-0.4-3.5c0-1.6,0.2-3,0.5-4.3
			c0.4-1.3,0.9-2.4,1.5-3.3c0.6-0.9,1.4-1.6,2.3-2.1s1.9-0.7,3.1-0.7c1.3,0,2.3,0.2,3,0.5v2c-0.9-0.5-1.9-0.7-3-0.7
			c-0.8,0-1.5,0.2-2.2,0.5c-0.7,0.4-1.2,0.9-1.7,1.5c-0.5,0.7-0.8,1.5-1.1,2.4c-0.2,0.9-0.4,2-0.4,3.1h0.1c0.8-1.5,2.2-2.3,4.2-2.3
			c0.8,0,1.5,0.1,2.2,0.4c0.6,0.3,1.2,0.7,1.6,1.1c0.5,0.5,0.8,1.1,1,1.8C1675.7,776.5,1675.8,777.2,1675.8,778.1z M1673.7,778.3
			c0-0.6-0.1-1.2-0.2-1.7c-0.2-0.5-0.4-0.9-0.7-1.3c-0.3-0.4-0.7-0.6-1.1-0.8c-0.4-0.2-0.9-0.3-1.5-0.3c-0.5,0-1,0.1-1.4,0.3
			c-0.4,0.2-0.8,0.5-1.1,0.8c-0.3,0.3-0.6,0.7-0.8,1.2c-0.2,0.4-0.3,0.9-0.3,1.4c0,0.6,0.1,1.2,0.3,1.8c0.2,0.5,0.4,1,0.7,1.4
			c0.3,0.4,0.7,0.7,1.1,1c0.4,0.2,0.9,0.3,1.5,0.3c0.5,0,1-0.1,1.4-0.3c0.4-0.2,0.8-0.5,1.1-0.8s0.5-0.8,0.7-1.3
			C1673.6,779.5,1673.7,778.9,1673.7,778.3z"/>
		<path class="st13" d="M1689.4,777.9h-9.2c0,1.4,0.4,2.6,1.2,3.4c0.7,0.8,1.8,1.2,3.1,1.2c1.5,0,2.8-0.5,4-1.4v2
			c-1.1,0.8-2.7,1.2-4.5,1.2c-1.8,0-3.3-0.6-4.3-1.8c-1-1.2-1.6-2.8-1.6-5c0-2,0.6-3.7,1.7-4.9c1.1-1.3,2.6-1.9,4.3-1.9
			s3,0.5,3.9,1.7c0.9,1.1,1.4,2.6,1.4,4.6V777.9z M1687.3,776.1c0-1.2-0.3-2.1-0.9-2.8s-1.4-1-2.4-1c-1,0-1.8,0.4-2.5,1.1
			s-1.1,1.6-1.3,2.8H1687.3z"/>
		<path class="st13" d="M1710.5,774.7c0,1.5-0.1,2.9-0.4,4c-0.3,1.2-0.7,2.2-1.2,3c-0.5,0.8-1.2,1.4-1.9,1.8
			c-0.8,0.4-1.6,0.6-2.6,0.6c-0.9,0-1.7-0.2-2.4-0.6c-0.7-0.4-1.3-1-1.8-1.8c-0.5-0.8-0.9-1.7-1.1-2.8c-0.3-1.1-0.4-2.4-0.4-3.9
			c0-1.6,0.1-3,0.4-4.2s0.7-2.2,1.2-3.1c0.5-0.8,1.2-1.4,1.9-1.9c0.8-0.4,1.6-0.6,2.6-0.6C1708.6,765.3,1710.5,768.4,1710.5,774.7z
			 M1708.4,774.9c0-5.2-1.2-7.8-3.7-7.8c-2.6,0-3.9,2.6-3.9,7.9c0,4.9,1.3,7.4,3.8,7.4C1707.1,782.4,1708.4,779.9,1708.4,774.9z"/>
		<path class="st13" d="M1723.2,770.8l-4.4,6.6l4.3,6.4h-2.4l-2.6-4.2c-0.2-0.3-0.4-0.6-0.6-1h-0.1c0,0.1-0.2,0.4-0.6,1l-2.6,4.2
			h-2.4l4.4-6.4l-4.2-6.6h2.4l2.5,4.4c0.2,0.3,0.4,0.7,0.5,1h0.1l3.2-5.5H1723.2z"/>
		<path class="st13" d="M1733.3,770.4c0-0.6-0.1-1-0.3-1.5c-0.2-0.4-0.4-0.8-0.7-1c-0.3-0.3-0.7-0.5-1.1-0.6s-0.8-0.2-1.3-0.2
			c-0.4,0-0.8,0.1-1.2,0.2c-0.4,0.1-0.8,0.3-1.1,0.5s-0.7,0.4-1.1,0.7s-0.7,0.6-1,0.9v-2.2c0.6-0.6,1.2-1,2-1.3
			c0.7-0.3,1.6-0.5,2.6-0.5c0.7,0,1.4,0.1,2.1,0.3c0.6,0.2,1.2,0.5,1.7,0.9c0.5,0.4,0.8,0.9,1.1,1.5s0.4,1.3,0.4,2.1
			c0,0.7-0.1,1.4-0.2,2s-0.4,1.1-0.7,1.7c-0.3,0.5-0.8,1-1.3,1.5s-1.1,1-1.8,1.4c-0.9,0.6-1.6,1.1-2.1,1.6c-0.6,0.4-1,0.8-1.3,1.2
			c-0.3,0.4-0.6,0.8-0.7,1.1c-0.1,0.4-0.2,0.8-0.2,1.3h9.1v1.9h-11.2v-0.9c0-0.8,0.1-1.5,0.3-2.1c0.2-0.6,0.4-1.2,0.8-1.7
			c0.4-0.5,0.9-1.1,1.5-1.6c0.6-0.5,1.4-1.1,2.3-1.8c0.7-0.5,1.2-0.9,1.7-1.4s0.8-0.9,1.1-1.3c0.3-0.4,0.5-0.9,0.6-1.3
			C1733.3,771.4,1733.3,770.9,1733.3,770.4z"/>
		<path class="st13" d="M1750.5,774.7c0,1.5-0.1,2.9-0.4,4c-0.3,1.2-0.7,2.2-1.2,3c-0.5,0.8-1.2,1.4-1.9,1.8
			c-0.8,0.4-1.6,0.6-2.6,0.6c-0.9,0-1.7-0.2-2.4-0.6c-0.7-0.4-1.3-1-1.8-1.8c-0.5-0.8-0.9-1.7-1.1-2.8c-0.3-1.1-0.4-2.4-0.4-3.9
			c0-1.6,0.1-3,0.4-4.2s0.7-2.2,1.2-3.1c0.5-0.8,1.2-1.4,1.9-1.9c0.8-0.4,1.6-0.6,2.6-0.6C1748.6,765.3,1750.5,768.4,1750.5,774.7z
			 M1748.4,774.9c0-5.2-1.2-7.8-3.7-7.8c-2.6,0-3.9,2.6-3.9,7.9c0,4.9,1.3,7.4,3.8,7.4C1747.1,782.4,1748.4,779.9,1748.4,774.9z"/>
		<path class="st13" d="M1771.6,774.7c0,1.5-0.1,2.9-0.4,4c-0.3,1.2-0.7,2.2-1.2,3c-0.5,0.8-1.2,1.4-1.9,1.8
			c-0.8,0.4-1.6,0.6-2.6,0.6c-0.9,0-1.7-0.2-2.4-0.6c-0.7-0.4-1.3-1-1.8-1.8c-0.5-0.8-0.9-1.7-1.1-2.8c-0.3-1.1-0.4-2.4-0.4-3.9
			c0-1.6,0.1-3,0.4-4.2s0.7-2.2,1.2-3.1c0.5-0.8,1.2-1.4,1.9-1.9c0.8-0.4,1.6-0.6,2.6-0.6C1769.7,765.3,1771.6,768.4,1771.6,774.7z
			 M1769.5,774.9c0-5.2-1.2-7.8-3.7-7.8c-2.6,0-3.9,2.6-3.9,7.9c0,4.9,1.3,7.4,3.8,7.4C1768.2,782.4,1769.5,779.9,1769.5,774.9z"/>
		<path class="st13" d="M1784.3,770.8l-4.4,6.6l4.3,6.4h-2.4l-2.6-4.2c-0.2-0.3-0.4-0.6-0.6-1h-0.1c0,0.1-0.2,0.4-0.6,1l-2.6,4.2
			h-2.4l4.4-6.4l-4.2-6.6h2.4l2.5,4.4c0.2,0.3,0.4,0.7,0.5,1h0.1l3.2-5.5H1784.3z"/>
		<path class="st13" d="M1795.4,765.6v12h2.3v1.9h-2.3v4.3h-2.1v-4.3h-8.6v-1.8c0.8-0.9,1.6-1.9,2.4-2.9c0.8-1,1.6-2.1,2.3-3.1
			c0.7-1,1.4-2.1,2.1-3.1c0.6-1,1.2-2,1.6-3H1795.4z M1787.1,777.7h6.2v-8.9c-0.6,1.1-1.2,2.1-1.8,3c-0.6,0.9-1.1,1.7-1.6,2.4
			c-0.5,0.7-1,1.4-1.5,1.9C1788,776.6,1787.6,777.1,1787.1,777.7z"/>
		<path class="st13" d="M1802.9,782L1802.9,782l-0.1,1.9h-2.1v-19.2h2.1v8.5h0.1c1-1.7,2.5-2.6,4.5-2.6c1.7,0,3,0.6,3.9,1.7
			c0.9,1.2,1.4,2.7,1.4,4.7c0,2.2-0.5,3.9-1.6,5.2c-1.1,1.3-2.5,2-4.3,2C1805.1,784.1,1803.8,783.4,1802.9,782z M1802.8,776.7v1.8
			c0,1.1,0.3,2,1,2.7c0.7,0.7,1.6,1.1,2.7,1.1c1.3,0,2.2-0.5,3-1.4c0.7-1,1.1-2.3,1.1-4c0-1.4-0.3-2.6-1-3.4
			c-0.7-0.8-1.6-1.2-2.7-1.2c-1.2,0-2.2,0.4-2.9,1.3C1803.2,774.4,1802.8,775.5,1802.8,776.7z"/>
		<path class="st13" d="M1834,774.7c0,1.5-0.1,2.9-0.4,4c-0.3,1.2-0.7,2.2-1.2,3c-0.5,0.8-1.2,1.4-1.9,1.8c-0.8,0.4-1.6,0.6-2.6,0.6
			c-0.9,0-1.7-0.2-2.4-0.6c-0.7-0.4-1.3-1-1.8-1.8c-0.5-0.8-0.9-1.7-1.1-2.8c-0.3-1.1-0.4-2.4-0.4-3.9c0-1.6,0.1-3,0.4-4.2
			s0.7-2.2,1.2-3.1c0.5-0.8,1.2-1.4,1.9-1.9c0.8-0.4,1.6-0.6,2.6-0.6C1832.1,765.3,1834,768.4,1834,774.7z M1831.9,774.9
			c0-5.2-1.2-7.8-3.7-7.8c-2.6,0-3.9,2.6-3.9,7.9c0,4.9,1.3,7.4,3.8,7.4C1830.6,782.4,1831.9,779.9,1831.9,774.9z"/>
		<path class="st13" d="M1846.7,770.8l-4.4,6.6l4.3,6.4h-2.4l-2.6-4.2c-0.2-0.3-0.4-0.6-0.6-1h-0.1c0,0.1-0.2,0.4-0.6,1l-2.6,4.2
			h-2.4l4.4-6.4l-4.2-6.6h2.4l2.5,4.4c0.2,0.3,0.4,0.7,0.5,1h0.1l3.2-5.5H1846.7z"/>
		<path class="st13" d="M1857.8,765.6v12h2.3v1.9h-2.3v4.3h-2.1v-4.3h-8.6v-1.8c0.8-0.9,1.6-1.9,2.4-2.9c0.8-1,1.6-2.1,2.3-3.1
			c0.7-1,1.4-2.1,2.1-3.1c0.6-1,1.2-2,1.6-3H1857.8z M1849.5,777.7h6.2v-8.9c-0.6,1.1-1.2,2.1-1.8,3c-0.6,0.9-1.1,1.7-1.6,2.4
			c-0.5,0.7-1,1.4-1.5,1.9C1850.4,776.6,1849.9,777.1,1849.5,777.7z"/>
		<path class="st13" d="M1869.5,766.4c-0.4-0.2-0.9-0.3-1.4-0.3c-1.5,0-2.2,0.9-2.2,2.8v2h3v1.8h-3v11.2h-2.1v-11.2h-2.2v-1.8h2.2
			v-2.1c0-1.4,0.4-2.4,1.2-3.2c0.8-0.8,1.8-1.2,2.9-1.2c0.6,0,1.1,0.1,1.5,0.2V766.4z"/>
		<path class="st13" d="M1889.2,774.7c0,1.5-0.1,2.9-0.4,4c-0.3,1.2-0.7,2.2-1.2,3c-0.5,0.8-1.2,1.4-1.9,1.8
			c-0.8,0.4-1.6,0.6-2.6,0.6c-0.9,0-1.7-0.2-2.4-0.6c-0.7-0.4-1.3-1-1.8-1.8c-0.5-0.8-0.9-1.7-1.1-2.8c-0.3-1.1-0.4-2.4-0.4-3.9
			c0-1.6,0.1-3,0.4-4.2s0.7-2.2,1.2-3.1c0.5-0.8,1.2-1.4,1.9-1.9c0.8-0.4,1.6-0.6,2.6-0.6C1887.3,765.3,1889.2,768.4,1889.2,774.7z
			 M1887.1,774.9c0-5.2-1.2-7.8-3.7-7.8c-2.6,0-3.9,2.6-3.9,7.9c0,4.9,1.3,7.4,3.8,7.4C1885.8,782.4,1887.1,779.9,1887.1,774.9z"/>
		<path class="st13" d="M1901.9,770.8l-4.4,6.6l4.3,6.4h-2.4l-2.6-4.2c-0.2-0.3-0.4-0.6-0.6-1h-0.1c0,0.1-0.2,0.4-0.6,1l-2.6,4.2
			h-2.4l4.4-6.4l-4.2-6.6h2.4l2.5,4.4c0.2,0.3,0.4,0.7,0.5,1h0.1l3.2-5.5H1901.9z"/>
		<path class="st13" d="M1913,765.6v12h2.3v1.9h-2.3v4.3h-2.1v-4.3h-8.6v-1.8c0.8-0.9,1.6-1.9,2.4-2.9c0.8-1,1.6-2.1,2.3-3.1
			c0.7-1,1.4-2.1,2.1-3.1c0.6-1,1.2-2,1.6-3H1913z M1904.7,777.7h6.2v-8.9c-0.6,1.1-1.2,2.1-1.8,3c-0.6,0.9-1.1,1.7-1.6,2.4
			c-0.5,0.7-1,1.4-1.5,1.9C1905.6,776.6,1905.2,777.1,1904.7,777.7z"/>
		<path class="st13" d="M1927.2,783.2c-1,0.6-2.2,0.9-3.6,0.9c-1.9,0-3.3-0.6-4.5-1.8c-1.1-1.2-1.7-2.8-1.7-4.7
			c0-2.1,0.6-3.9,1.8-5.2c1.2-1.3,2.9-1.9,4.9-1.9c1.1,0,2.2,0.2,3,0.6v2.1c-1-0.7-2-1-3.1-1c-1.3,0-2.4,0.5-3.3,1.4
			c-0.9,1-1.3,2.2-1.3,3.8c0,1.5,0.4,2.7,1.2,3.6s1.9,1.3,3.2,1.3c1.1,0,2.2-0.4,3.2-1.1V783.2z"/>
		<path class="st13" d="M1948.3,774.7c0,1.5-0.1,2.9-0.4,4c-0.3,1.2-0.7,2.2-1.2,3c-0.5,0.8-1.2,1.4-1.9,1.8
			c-0.8,0.4-1.6,0.6-2.6,0.6c-0.9,0-1.7-0.2-2.4-0.6c-0.7-0.4-1.3-1-1.8-1.8c-0.5-0.8-0.9-1.7-1.1-2.8c-0.3-1.1-0.4-2.4-0.4-3.9
			c0-1.6,0.1-3,0.4-4.2s0.7-2.2,1.2-3.1c0.5-0.8,1.2-1.4,1.9-1.9c0.8-0.4,1.6-0.6,2.6-0.6C1946.4,765.3,1948.3,768.4,1948.3,774.7z
			 M1946.2,774.9c0-5.2-1.2-7.8-3.7-7.8c-2.6,0-3.9,2.6-3.9,7.9c0,4.9,1.3,7.4,3.8,7.4C1944.9,782.4,1946.2,779.9,1946.2,774.9z"/>
		<path class="st13" d="M1961,770.8l-4.4,6.6l4.3,6.4h-2.4l-2.6-4.2c-0.2-0.3-0.4-0.6-0.6-1h-0.1c0,0.1-0.2,0.4-0.6,1l-2.6,4.2h-2.4
			l4.4-6.4l-4.2-6.6h2.4l2.5,4.4c0.2,0.3,0.4,0.7,0.5,1h0.1l3.2-5.5H1961z"/>
		<path class="st13" d="M1972.1,765.6v12h2.3v1.9h-2.3v4.3h-2.1v-4.3h-8.6v-1.8c0.8-0.9,1.6-1.9,2.4-2.9c0.8-1,1.6-2.1,2.3-3.1
			c0.7-1,1.4-2.1,2.1-3.1c0.6-1,1.2-2,1.6-3H1972.1z M1963.8,777.7h6.2v-8.9c-0.6,1.1-1.2,2.1-1.8,3c-0.6,0.9-1.1,1.7-1.6,2.4
			c-0.5,0.7-1,1.4-1.5,1.9C1964.7,776.6,1964.3,777.1,1963.8,777.7z"/>
		<path class="st13" d="M1984.5,783.8h-2.1v-15.7c-0.2,0.2-0.4,0.3-0.7,0.6c-0.3,0.2-0.7,0.4-1,0.6c-0.4,0.2-0.8,0.4-1.2,0.6
			c-0.4,0.2-0.8,0.3-1.3,0.4v-2.1c0.5-0.1,0.9-0.3,1.5-0.5c0.5-0.2,1-0.5,1.5-0.7c0.5-0.3,1-0.5,1.4-0.8c0.4-0.3,0.8-0.6,1.1-0.9
			h0.8V783.8z"/>
		<path class="st13" d="M2009.4,774.7c0,1.5-0.1,2.9-0.4,4c-0.3,1.2-0.7,2.2-1.2,3c-0.5,0.8-1.2,1.4-1.9,1.8
			c-0.8,0.4-1.6,0.6-2.6,0.6c-0.9,0-1.7-0.2-2.4-0.6c-0.7-0.4-1.3-1-1.8-1.8c-0.5-0.8-0.9-1.7-1.1-2.8c-0.3-1.1-0.4-2.4-0.4-3.9
			c0-1.6,0.1-3,0.4-4.2s0.7-2.2,1.2-3.1c0.5-0.8,1.2-1.4,1.9-1.9c0.8-0.4,1.6-0.6,2.6-0.6C2007.5,765.3,2009.4,768.4,2009.4,774.7z
			 M2007.3,774.9c0-5.2-1.2-7.8-3.7-7.8c-2.6,0-3.9,2.6-3.9,7.9c0,4.9,1.3,7.4,3.8,7.4C2006,782.4,2007.3,779.9,2007.3,774.9z"/>
		<path class="st13" d="M2022.1,770.8l-4.4,6.6l4.3,6.4h-2.4l-2.6-4.2c-0.2-0.3-0.4-0.6-0.6-1h-0.1c0,0.1-0.2,0.4-0.6,1l-2.6,4.2
			h-2.4l4.4-6.4l-4.2-6.6h2.4l2.5,4.4c0.2,0.3,0.4,0.7,0.5,1h0.1l3.2-5.5H2022.1z"/>
		<path class="st13" d="M2033.2,765.6v12h2.3v1.9h-2.3v4.3h-2.1v-4.3h-8.6v-1.8c0.8-0.9,1.6-1.9,2.4-2.9c0.8-1,1.6-2.1,2.3-3.1
			c0.7-1,1.4-2.1,2.1-3.1c0.6-1,1.2-2,1.6-3H2033.2z M2024.9,777.7h6.2v-8.9c-0.6,1.1-1.2,2.1-1.8,3c-0.6,0.9-1.1,1.7-1.6,2.4
			c-0.5,0.7-1,1.4-1.5,1.9C2025.8,776.6,2025.4,777.1,2024.9,777.7z"/>
		<path class="st13" d="M2049.6,783.8h-2.1v-2.2h-0.1c-1,1.7-2.5,2.5-4.5,2.5c-1.6,0-2.9-0.6-3.9-1.7c-1-1.2-1.5-2.7-1.5-4.8
			c0-2.1,0.5-3.9,1.6-5.2c1.1-1.3,2.5-1.9,4.3-1.9c1.8,0,3.1,0.7,3.9,2.1h0.1v-8h2.1V783.8z M2047.6,778V776c0-1-0.3-1.9-1-2.7
			c-0.7-0.7-1.6-1.1-2.6-1.1c-1.3,0-2.3,0.5-3,1.4c-0.7,0.9-1.1,2.2-1.1,3.9c0,1.5,0.3,2.7,1,3.5c0.7,0.9,1.6,1.3,2.8,1.3
			c1.2,0,2.1-0.4,2.8-1.3S2047.6,779.2,2047.6,778z"/>
		<path class="st13" d="M2071.8,774.7c0,1.5-0.1,2.9-0.4,4c-0.3,1.2-0.7,2.2-1.2,3c-0.5,0.8-1.2,1.4-1.9,1.8
			c-0.8,0.4-1.6,0.6-2.6,0.6c-0.9,0-1.7-0.2-2.4-0.6c-0.7-0.4-1.3-1-1.8-1.8c-0.5-0.8-0.9-1.7-1.1-2.8c-0.3-1.1-0.4-2.4-0.4-3.9
			c0-1.6,0.1-3,0.4-4.2s0.7-2.2,1.2-3.1c0.5-0.8,1.2-1.4,1.9-1.9c0.8-0.4,1.6-0.6,2.6-0.6C2069.9,765.3,2071.8,768.4,2071.8,774.7z
			 M2069.7,774.9c0-5.2-1.2-7.8-3.7-7.8c-2.6,0-3.9,2.6-3.9,7.9c0,4.9,1.3,7.4,3.8,7.4C2068.4,782.4,2069.7,779.9,2069.7,774.9z"/>
		<path class="st13" d="M2084.5,770.8l-4.4,6.6l4.3,6.4h-2.4l-2.6-4.2c-0.2-0.3-0.4-0.6-0.6-1h-0.1c0,0.1-0.2,0.4-0.6,1l-2.6,4.2
			h-2.4l4.4-6.4l-4.2-6.6h2.4l2.5,4.4c0.2,0.3,0.4,0.7,0.5,1h0.1l3.2-5.5H2084.5z"/>
		<path class="st13" d="M2097.1,778.3c0,0.9-0.2,1.7-0.5,2.4s-0.7,1.3-1.3,1.9c-0.6,0.5-1.2,0.9-2,1.2c-0.8,0.3-1.7,0.4-2.7,0.4
			c-1.7,0-2.9-0.3-3.8-0.8v-2.2c1.2,0.8,2.5,1.2,3.8,1.2c0.7,0,1.3-0.1,1.8-0.3c0.5-0.2,1-0.5,1.4-0.8c0.4-0.3,0.7-0.8,0.9-1.3
			c0.2-0.5,0.3-1,0.3-1.6c0-1.2-0.4-2.1-1.2-2.8c-0.8-0.7-2-1-3.5-1c-0.2,0-0.5,0-0.8,0c-0.3,0-0.5,0-0.8,0c-0.3,0-0.5,0-0.8,0
			c-0.3,0-0.5,0-0.7,0.1l0.6-9.1h8.4v1.9h-6.6l-0.4,5.3c0.3,0,0.6,0,0.9,0c0.3,0,0.6,0,0.8,0c1,0,1.8,0.1,2.6,0.4s1.4,0.6,1.9,1.1
			c0.5,0.5,0.9,1,1.2,1.7C2097,776.7,2097.1,777.4,2097.1,778.3z"/>
		<path class="st13" d="M2111.1,778.3c0,0.9-0.2,1.7-0.5,2.4s-0.7,1.3-1.3,1.9c-0.6,0.5-1.2,0.9-2,1.2c-0.8,0.3-1.7,0.4-2.7,0.4
			c-1.7,0-2.9-0.3-3.8-0.8v-2.2c1.2,0.8,2.5,1.2,3.8,1.2c0.7,0,1.3-0.1,1.8-0.3c0.5-0.2,1-0.5,1.4-0.8c0.4-0.3,0.7-0.8,0.9-1.3
			c0.2-0.5,0.3-1,0.3-1.6c0-1.2-0.4-2.1-1.2-2.8c-0.8-0.7-2-1-3.5-1c-0.2,0-0.5,0-0.8,0c-0.3,0-0.5,0-0.8,0c-0.3,0-0.5,0-0.8,0
			c-0.3,0-0.5,0-0.7,0.1l0.6-9.1h8.4v1.9h-6.6l-0.4,5.3c0.3,0,0.6,0,0.9,0c0.3,0,0.6,0,0.8,0c1,0,1.8,0.1,2.6,0.4s1.4,0.6,1.9,1.1
			c0.5,0.5,0.9,1,1.2,1.7C2111,776.7,2111.1,777.4,2111.1,778.3z"/>
		<path class="st13" d="M2132.9,774.7c0,1.5-0.1,2.9-0.4,4c-0.3,1.2-0.7,2.2-1.2,3c-0.5,0.8-1.2,1.4-1.9,1.8
			c-0.8,0.4-1.6,0.6-2.6,0.6c-0.9,0-1.7-0.2-2.4-0.6c-0.7-0.4-1.3-1-1.8-1.8c-0.5-0.8-0.9-1.7-1.1-2.8c-0.3-1.1-0.4-2.4-0.4-3.9
			c0-1.6,0.1-3,0.4-4.2s0.7-2.2,1.2-3.1c0.5-0.8,1.2-1.4,1.9-1.9c0.8-0.4,1.6-0.6,2.6-0.6C2131,765.3,2132.9,768.4,2132.9,774.7z
			 M2130.8,774.9c0-5.2-1.2-7.8-3.7-7.8c-2.6,0-3.9,2.6-3.9,7.9c0,4.9,1.3,7.4,3.8,7.4C2129.5,782.4,2130.8,779.9,2130.8,774.9z"/>
		<path class="st13" d="M2145.6,770.8l-4.4,6.6l4.3,6.4h-2.4l-2.6-4.2c-0.2-0.3-0.4-0.6-0.6-1h-0.1c0,0.1-0.2,0.4-0.6,1l-2.6,4.2
			h-2.4l4.4-6.4l-4.2-6.6h2.4l2.5,4.4c0.2,0.3,0.4,0.7,0.5,1h0.1l3.2-5.5H2145.6z"/>
		<path class="st13" d="M2156.7,765.6v12h2.3v1.9h-2.3v4.3h-2.1v-4.3h-8.6v-1.8c0.8-0.9,1.6-1.9,2.4-2.9c0.8-1,1.6-2.1,2.3-3.1
			c0.7-1,1.4-2.1,2.1-3.1c0.6-1,1.2-2,1.6-3H2156.7z M2148.4,777.7h6.2v-8.9c-0.6,1.1-1.2,2.1-1.8,3c-0.6,0.9-1.1,1.7-1.6,2.4
			c-0.5,0.7-1,1.4-1.5,1.9C2149.3,776.6,2148.9,777.1,2148.4,777.7z"/>
		<path class="st13" d="M2172,778.7c0,0.8-0.2,1.6-0.5,2.2c-0.3,0.7-0.7,1.2-1.3,1.7c-0.6,0.5-1.2,0.8-2,1.1s-1.7,0.4-2.6,0.4
			c-1.7,0-3.1-0.3-4.1-1v-2.2c1.2,1,2.6,1.4,4.2,1.4c0.6,0,1.2-0.1,1.7-0.2c0.5-0.2,1-0.4,1.3-0.7s0.7-0.7,0.9-1.1
			c0.2-0.4,0.3-0.9,0.3-1.5c0-2.4-1.7-3.6-5.1-3.6h-1.5v-1.8h1.4c3,0,4.5-1.1,4.5-3.4c0-2.1-1.1-3.1-3.4-3.1c-1.3,0-2.5,0.4-3.6,1.3
			v-2c1.2-0.7,2.5-1,4.1-1c0.8,0,1.5,0.1,2.1,0.3c0.6,0.2,1.1,0.5,1.6,0.9c0.4,0.4,0.8,0.8,1,1.4s0.4,1.1,0.4,1.8
			c0,2.4-1.2,3.9-3.6,4.6v0.1c0.6,0.1,1.2,0.2,1.7,0.5c0.5,0.2,1,0.5,1.4,0.9s0.7,0.8,0.9,1.3C2171.9,777.5,2172,778.1,2172,778.7z"
			/>
	</g>
</g>
<g id="Layer_2">
	
		<image style="overflow:visible;" width="800" height="800" xlink:href="../../../Desktop/ReadyPlayerMe-Avatar.png"  transform="matrix(1 0 0 1 15 -11)">
	</image>
</g>
</svg>
